<?xml version="1.0" encoding="UTF-8"?>
<!DOCTYPE svg PUBLIC "-//W3C//DTD SVG 1.1//EN" "http://www.w3.org/Graphics/SVG/1.1/DTD/svg11.dtd">
<svg xmlns="http://www.w3.org/2000/svg" version="1.1" width="701px" height="805px" style="shape-rendering:geometricPrecision; text-rendering:geometricPrecision; image-rendering:optimizeQuality; fill-rule:evenodd; clip-rule:evenodd" xmlns:xlink="http://www.w3.org/1999/xlink">
<g><path style="opacity:0.982" fill="#020302" d="M 601.5,804.5 C 601.167,804.5 600.833,804.5 600.5,804.5C 583.163,795.672 565.163,788.172 546.5,782C 515.316,771.328 483.983,761.161 452.5,751.5C 352.314,778.899 262.314,759.733 182.5,694C 149.546,664.384 124.379,629.217 107,588.5C 74.0074,559.75 38.1741,535.083 -0.5,514.5C -0.5,514.167 -0.5,513.833 -0.5,513.5C 13.7572,516.627 27.4238,521.46 40.5,528C 60.1161,537.972 78.9495,549.138 97,561.5C 96.3389,556.844 95.3389,552.178 94,547.5C 93.5348,546.069 92.7014,544.903 91.5,544C 76.9596,535.564 62.2929,527.397 47.5,519.5C 55.9076,511.457 65.241,504.624 75.5,499C 79.3225,498.415 82.9892,498.915 86.5,500.5C 83.02,385.607 129.353,297.441 225.5,236C 236.554,229.806 247.888,224.139 259.5,219C 260.811,215.646 261.644,212.146 262,208.5C 262.685,205.943 264.185,204.109 266.5,203C 278.006,201.638 289.506,202.471 301,205.5C 315.61,201.698 330.443,199.198 345.5,198C 362.912,197.575 380.246,197.408 397.5,197.5C 379.202,162.898 365.369,126.565 356,88.5C 348.135,54.3552 360.635,42.5219 393.5,53C 411.781,60.9748 428.781,70.9748 444.5,83C 485.783,115.281 521.949,152.448 553,194.5C 603.295,266.426 641.962,344.426 669,428.5C 675.479,449.036 678.146,470.036 677,491.5C 675.843,504.308 671.01,515.475 662.5,525C 657.674,527.246 653.008,529.746 648.5,532.5C 634.509,600.85 600.842,657.184 547.5,701.5C 552.082,704.041 556.582,706.707 561,709.5C 563.723,727.485 564.889,745.485 564.5,763.5C 541.954,751.716 518.621,742.216 494.5,735C 490.286,737.274 485.953,739.274 481.5,741C 507.548,751.354 533.215,762.687 558.5,775C 573.012,782.418 586.679,791.084 599.5,801C 600.823,801.816 601.489,802.983 601.5,804.5 Z"/></g>
<g><path style="opacity:1" fill="#fefefe" d="M 376.5,71.5 C 388.616,74.3885 399.949,79.2219 410.5,86C 429.98,98.8065 448.313,113.14 465.5,129C 484.394,147.226 502.561,166.059 520,185.5C 571.839,255.493 612.506,331.826 642,414.5C 648.184,431.382 652.517,448.715 655,466.5C 655.667,474.833 655.667,483.167 655,491.5C 654.289,497.476 652.122,502.809 648.5,507.5C 580.803,542.015 510.47,570.182 437.5,592C 423.21,595.657 408.877,598.991 394.5,602C 370.022,606.447 345.356,608.447 320.5,608C 307.412,607.978 295.079,604.978 283.5,599C 279.855,595.547 277.355,591.38 276,586.5C 272.418,571.946 271.751,557.279 274,542.5C 280.705,527.15 289.038,512.817 299,499.5C 329.858,459.901 363.525,422.567 400,387.5C 405.51,379.056 405.843,370.389 401,361.5C 397.535,357.033 393.702,352.867 389.5,349C 365.433,330.958 342.099,311.958 319.5,292C 300.436,273.342 288.436,250.842 283.5,224.5C 310.629,229.232 335.963,238.732 359.5,253C 394.011,272.512 426.011,295.512 455.5,322C 467.571,326.693 477.404,323.859 485,313.5C 488.702,304.516 488.035,295.85 483,287.5C 462.581,256.328 441.915,225.328 421,194.5C 401.657,159.161 386.99,121.828 377,82.5C 376.501,78.8484 376.335,75.1817 376.5,71.5 Z"/></g>
<g><path style="opacity:1" fill="#0ff48c" d="M 348.5,207.5 C 367.929,206.91 387.262,207.91 406.5,210.5C 424.504,238.511 443.004,266.178 462,293.5C 463.955,296.719 465.288,300.053 466,303.5C 423.335,264.538 375.168,234.038 321.5,212C 330.545,210.082 339.545,208.582 348.5,207.5 Z"/></g>
<g><path style="opacity:1" fill="#0ff88e" d="M 260.5,229.5 C 261.5,229.5 262.5,229.5 263.5,229.5C 267.614,251.679 276.114,272.012 289,290.5C 297.167,300 306,308.833 315.5,317C 334.62,333.388 354.286,349.055 374.5,364C 377.683,367.015 380.683,370.182 383.5,373.5C 347.592,408.895 314.092,446.229 283,485.5C 270.68,501.802 260.68,519.469 253,538.5C 250.964,554.192 251.297,569.859 254,585.5C 257.493,606.66 269.659,619.827 290.5,625C 309.273,629.21 328.273,630.543 347.5,629C 402.508,623.915 455.841,611.581 507.5,592C 550.977,575.762 593.643,557.596 635.5,537.5C 629.795,567.614 618.961,595.947 603,622.5C 584.928,651.41 562.428,676.41 535.5,697.5C 489.9,681.934 443.234,670.767 395.5,664C 346.803,656.234 297.803,651.9 248.5,651C 208.355,592.519 158.188,544.685 98,507.5C 90.9648,397.747 132.465,311.914 222.5,250C 234.847,242.465 247.514,235.632 260.5,229.5 Z"/></g>
<g><path style="opacity:1" fill="#020302" d="M 507.5,342.5 C 541.916,341.914 559.249,358.914 559.5,393.5C 555.091,409.757 544.758,420.924 528.5,427C 499.067,434.944 480.234,424.111 472,394.5C 468.782,366.538 480.615,349.204 507.5,342.5 Z"/></g>
<g><path style="opacity:1" fill="#0ff58c" d="M 509.5,363.5 C 527.182,361.853 536.516,369.853 537.5,387.5C 537.007,396.306 532.674,402.473 524.5,406C 505.558,412.607 494.891,405.774 492.5,385.5C 492.481,380.055 493.981,375.055 497,370.5C 500.728,367.223 504.895,364.89 509.5,363.5 Z"/></g>
<g><path style="opacity:1" fill="#020202" d="M 418.5,383.5 C 442.84,380.412 459.673,390.078 469,412.5C 474.56,443.86 461.727,463.027 430.5,470C 412.251,472.125 398.417,465.292 389,449.5C 375.925,425.964 380.425,406.464 402.5,391C 407.542,387.643 412.876,385.143 418.5,383.5 Z"/></g>
<g><path style="opacity:1" fill="#0ff58c" d="M 421.5,404.5 C 438.013,402.529 447.346,409.695 449.5,426C 449.435,435.469 445.101,442.136 436.5,446C 422.011,453.059 411.511,449.226 405,434.5C 401.465,428.257 401.799,422.257 406,416.5C 410.233,411.077 415.4,407.077 421.5,404.5 Z"/></g>
<g><path style="opacity:1" fill="#f9f9f9" d="M 77.5,509.5 C 91.1858,514.509 103.853,521.342 115.5,530C 156.808,559.637 193.308,594.471 225,634.5C 231.206,643.076 237.039,651.909 242.5,661C 330.688,662.143 417.355,674.143 502.5,697C 519.068,701.476 535.068,707.476 550.5,715C 552.961,724.969 553.961,735.136 553.5,745.5C 497.793,721.875 440.46,702.709 381.5,688C 333.883,676.357 285.55,670.524 236.5,670.5C 228.359,656.193 218.859,642.86 208,630.5C 167.569,584.08 120.402,546.413 66.5,517.5C 70.2085,514.777 73.8751,512.11 77.5,509.5 Z"/></g>
<g><path style="opacity:1" fill="#0ff18a" d="M 106.5,553.5 C 146.905,581.066 182.405,614.066 213,652.5C 220.433,661.696 226.6,671.696 231.5,682.5C 247.789,681.349 264.122,681.182 280.5,682C 349.984,688.469 417.318,704.136 482.5,729C 476.875,731.597 471.208,734.097 465.5,736.5C 404.469,713.327 341.469,698.494 276.5,692C 262.5,691.333 248.5,691.333 234.5,692C 231.294,692.296 228.128,692.796 225,693.5C 218.759,682.255 212.092,671.255 205,660.5C 187.611,637.442 167.778,616.609 145.5,598C 134.06,589.528 122.894,580.695 112,571.5C 109.853,565.561 108.02,559.561 106.5,553.5 Z"/></g>
<g><path style="opacity:1" fill="#0fea86" d="M 127.5,606.5 C 153.095,630.251 174.762,657.085 192.5,687C 191.833,687.667 191.167,687.667 190.5,687C 164.361,664.047 143.361,637.213 127.5,606.5 Z"/></g>
<g><path style="opacity:1" fill="#0ff58d" d="M 248.5,712.5 C 273.76,711.626 298.76,713.793 323.5,719C 360.27,726.276 396.604,735.276 432.5,746C 369.991,760.144 309.658,753.811 251.5,727C 245.843,724.507 240.51,721.507 235.5,718C 239.707,715.66 244.041,713.826 248.5,712.5 Z"/></g>
</svg>
