<svg width="800" height="800" viewBox="0 0 800 800" fill="none" xmlns="http://www.w3.org/2000/svg">
<path d="M167 633.333V206.667C167 169.33 167 150.661 174.266 136.401C180.658 123.856 190.856 113.658 203.401 107.266C217.661 100 236.33 100 273.667 100H527C564.337 100 583.007 100 597.267 107.266C609.81 113.658 620.01 123.856 626.4 136.401C633.667 150.661 633.667 169.33 633.667 206.667V566.667H233.667C196.848 566.667 167 596.513 167 633.333ZM167 633.333C167 670.153 196.848 700 233.667 700H633.667M600.333 566.667V700M333.667 200V333.333M267 266.667H400.333" stroke="black" stroke-width="66.6667" stroke-linecap="round" stroke-linejoin="round"/>
</svg>
