<svg class="svg-icon" style="width: 1em; height: 1em;vertical-align: middle;fill: currentColor;overflow: hidden;" viewBox="0 0 1024 1024" version="1.1" xmlns="http://www.w3.org/2000/svg"><path d="M42.666667 874.752V404.096c0.469333-49.92 32.789333-106.56 75.626666-132.266667L490.026667 48.768a42.666667 42.666667 0 0 1 43.904 0l371.754666 223.104C948.949333 297.792 981.333333 354.901333 981.333333 405.184v469.546667A106.666667 106.666667 0 0 1 874.517333 981.333333H149.482667C90.56 981.333333 42.666667 933.504 42.666667 874.752zM896 565.973333L533.973333 797.290667a40.448 40.448 0 0 1-43.946666 0L128 565.994667v328.704C128 907.093333 137.664 917.333333 149.482667 917.333333h725.034666c11.946667 0 21.482667-10.133333 21.482667-22.613333V565.973333zM162.197333 345.002667c-17.408 10.453333-34.133333 39.872-34.197333 60.010666v21.802667c0 20.181333 16.746667 49.706667 34.197333 60.16L512 696.917333l349.802667-209.92c17.557333-10.517333 34.197333-39.893333 34.197333-60.16v-21.632c0-20.266667-16.64-49.642667-34.197333-60.16L512 135.082667l-349.802667 209.92z" fill="" /></svg>