<svg class="svg-icon" style="width: 1em; height: 1em;vertical-align: middle;fill: currentColor;overflow: hidden;" viewBox="0 0 1024 1024" version="1.1" xmlns="http://www.w3.org/2000/svg"><path d="M42.666667 277.248A106.666667 106.666667 0 0 1 149.482667 170.666667h725.034666C933.44 170.666667 981.333333 218.496 981.333333 277.248v469.504A106.666667 106.666667 0 0 1 874.517333 853.333333H149.482667C90.56 853.333333 42.666667 805.504 42.666667 746.752V277.248z m853.333333 160.746667L533.973333 655.253333a42.666667 42.666667 0 0 1-43.946666 0L128 437.973333v308.757334c0 11.584 9.664 21.248 21.482667 21.248h725.034666A21.333333 21.333333 0 0 0 896 746.752V437.973333z m-34.197333-78.997334c17.557333-10.538667 34.197333-39.893333 34.197333-60.181333v-21.546667a21.269333 21.269333 0 0 0-21.205333-21.269333H149.205333a21.269333 21.269333 0 0 0-21.205333 21.269333v21.546667c0 20.181333 16.746667 49.706667 34.197333 60.16L512 568.917333l349.802667-209.92z"  /></svg>