<svg width="800" height="800" viewBox="0 0 800 800" fill="none" xmlns="http://www.w3.org/2000/svg">
<path d="M613.305 593.568C555.679 540.078 480.399 509.953 401.992 509.006C323.586 508.059 247.609 536.356 188.723 588.438L162.076 558.027C228.432 499.317 314.053 467.408 402.419 468.457C490.785 469.505 575.635 503.436 640.596 563.703L613.305 593.568Z" fill="black"/>
<path d="M398.332 248.422C418.087 248.422 437.397 254.28 453.822 265.255C470.247 276.23 483.049 291.829 490.609 310.079C498.168 328.329 500.146 348.412 496.292 367.786C492.438 387.161 482.926 404.957 468.958 418.926C454.989 432.894 437.192 442.406 417.818 446.26C398.443 450.114 378.362 448.136 360.111 440.577C341.861 433.017 326.261 420.215 315.286 403.79C304.312 387.365 298.455 368.055 298.455 348.301C298.487 321.821 309.019 296.435 327.743 277.711C346.467 258.987 371.853 248.454 398.332 248.422ZM398.332 208.148C370.613 208.148 343.516 216.368 320.468 231.768C297.42 247.168 279.457 269.057 268.849 294.667C258.241 320.276 255.466 348.456 260.874 375.643C266.282 402.83 279.629 427.803 299.23 447.403C318.831 467.004 343.804 480.352 370.991 485.76C398.178 491.168 426.358 488.392 451.967 477.785C477.577 467.177 499.465 449.213 514.865 426.165C530.265 403.117 538.485 376.02 538.485 348.301C538.485 311.13 523.718 275.482 497.435 249.198C471.151 222.915 435.503 208.148 398.332 208.148Z" fill="black"/>
<path d="M400.335 112.324C453.343 112.324 505.16 128.042 549.235 157.492C593.309 186.941 627.661 228.799 647.946 277.771C668.231 326.744 673.538 380.632 663.196 432.621C652.855 484.61 627.33 532.366 589.847 569.848C552.365 607.33 504.611 632.855 452.622 643.196C400.632 653.538 346.744 648.23 297.771 627.945C248.799 607.66 206.941 573.308 177.492 529.234C148.042 485.16 132.323 433.342 132.323 380.335C132.403 309.278 160.666 241.155 210.911 190.911C261.155 140.666 329.279 112.404 400.335 112.324ZM400.335 72C339.352 72 279.739 90.0838 229.033 123.964C178.328 157.844 138.808 205.999 115.47 262.34C92.1333 318.681 86.0276 380.677 97.9248 440.488C109.822 500.299 139.188 555.239 182.31 598.361C225.431 641.482 280.371 670.848 340.182 682.745C399.993 694.642 461.989 688.536 518.33 665.199C574.671 641.862 622.826 602.342 656.706 551.637C690.587 500.931 708.67 441.318 708.67 380.335C708.67 298.559 676.185 220.133 618.361 162.309C560.537 104.485 482.111 72 400.335 72Z" fill="black"/>
</svg>
