<?xml version="1.0" standalone="no"?>
<!DOCTYPE svg PUBLIC "-//W3C//DTD SVG 20010904//EN"
 "http://www.w3.org/TR/2001/REC-SVG-20010904/DTD/svg10.dtd">
<svg version="1.0" xmlns="http://www.w3.org/2000/svg"
 width="492.000000pt" height="492.000000pt" viewBox="0 0 492.000000 492.000000"
 preserveAspectRatio="xMidYMid meet">
<metadata>
Created by potrace 1.14, written by Peter Selinger 2001-2017
</metadata>
<g transform="translate(0.000000,492.000000) scale(0.100000,-0.100000)"
fill="#000000" stroke="none">
<path d="M3629 4860 c-90 -27 -195 -105 -264 -196 -62 -81 -66 -82 -145 -6
-77 73 -159 122 -268 162 -111 41 -193 50 -237 26 -60 -32 -84 -123 -74 -270
14 -180 102 -335 257 -451 l67 -51 0 -234 c0 -191 -3 -247 -17 -297 -32 -121
-82 -186 -178 -239 -19 -10 -37 -22 -40 -25 -7 -9 -229 -79 -250 -79 -9 0 -20
-3 -24 -7 -3 -4 -17 -8 -29 -10 -12 -2 -29 -6 -37 -10 -8 -3 -17 -7 -20 -8
-106 -27 -283 -109 -395 -183 -101 -67 -283 -232 -332 -301 -8 -12 -27 -36
-44 -53 -16 -18 -29 -38 -29 -45 0 -7 -4 -13 -8 -13 -5 0 -17 -17 -28 -37 -10
-21 -22 -40 -25 -43 -7 -6 -67 -132 -66 -140 0 -3 -10 -25 -23 -50 -28 -56
-61 -145 -73 -205 -2 -5 -7 -23 -14 -40 -6 -16 -16 -48 -22 -70 -28 -105 -56
-185 -64 -185 -4 0 -6 -4 -2 -9 3 -5 1 -12 -5 -16 -6 -4 -8 -11 -5 -16 4 -5 1
-9 -5 -9 -6 0 -9 -4 -6 -9 3 -5 -1 -12 -10 -15 -8 -3 -13 -10 -9 -15 3 -6 -3
-18 -13 -28 -25 -25 -58 -77 -99 -155 -23 -45 -145 -150 -229 -198 -161 -92
-388 -149 -589 -148 -80 0 -124 6 -164 19 -62 22 -88 18 -97 -15 -12 -49 18
-88 147 -186 135 -104 338 -191 479 -206 36 -3 68 -8 72 -11 11 -6 316 -5 363
2 255 36 412 80 505 142 19 13 38 23 42 23 4 0 34 17 65 37 32 20 59 36 61 35
1 -1 16 11 34 28 17 16 37 30 43 30 7 0 16 7 19 16 3 8 10 12 16 9 5 -3 10 -2
10 2 0 5 13 16 29 26 29 17 30 17 46 -5 36 -52 46 -125 50 -379 2 -142 -1
-211 -11 -248 -7 -29 -16 -106 -19 -170 -7 -134 5 -183 57 -226 49 -42 72 -45
423 -61 190 -8 1342 -9 1398 0 55 8 87 37 87 77 0 15 -18 63 -41 108 -22 45
-38 89 -35 97 11 29 62 37 252 39 142 3 200 7 227 19 40 16 53 46 43 98 -12
62 -110 188 -171 220 -14 7 -43 26 -65 42 -40 29 -210 87 -295 100 -105 17
-361 23 -655 13 l-55 -1 1 99 c0 104 9 242 18 285 2 14 7 42 10 63 6 39 22 77
32 77 7 0 86 -60 94 -71 3 -4 57 -41 120 -83 63 -41 120 -79 125 -83 6 -5 43
-26 84 -47 60 -31 84 -38 130 -38 78 0 176 25 270 69 80 36 92 49 107 116 1 4
2 8 4 10 1 1 3 9 5 18 5 29 63 138 178 334 15 26 27 54 27 61 0 8 5 14 10 14
6 0 10 4 10 10 0 9 69 123 90 147 5 7 10 19 10 27 0 8 3 16 8 18 4 2 22 31 40
64 18 34 48 88 67 120 19 32 35 65 35 73 0 9 -34 49 -75 89 -41 40 -75 79 -75
87 0 7 -3 15 -7 17 -12 5 -97 185 -118 248 -1 3 -7 19 -14 35 -8 17 -28 72
-45 124 -38 112 -55 128 -106 103 -19 -9 -42 -24 -52 -34 -9 -9 -31 -23 -50
-32 -18 -9 -58 -39 -87 -66 -30 -28 -58 -50 -61 -50 -16 0 -51 54 -47 71 3 10
2 18 -2 17 -17 -2 -20 4 -11 27 6 17 6 25 -1 25 -6 0 -7 5 -3 11 3 6 0 15 -7
20 -11 7 -11 9 -1 9 8 0 10 5 5 13 -4 6 -8 26 -8 42 -1 17 -4 44 -8 60 -4 17
-9 46 -12 65 -9 56 -24 108 -66 234 -30 89 -39 132 -37 169 3 53 4 54 78 85
104 44 109 44 167 36 32 -4 60 -7 63 -7 54 9 79 14 100 19 14 3 31 6 38 6 6 1
12 5 12 10 0 4 6 8 13 8 15 0 85 107 105 163 21 59 21 183 -1 224 -24 46 -87
93 -217 163 -63 34 -137 79 -165 100 -27 21 -69 50 -93 65 -23 16 -45 39 -48
52 -4 14 3 56 15 96 27 93 30 234 5 313 -29 92 -86 128 -165 104z"/>
</g>
</svg>
