<?xml version="1.0" standalone="no"?>
<!DOCTYPE svg PUBLIC "-//W3C//DTD SVG 1.1//EN" "http://www.w3.org/Graphics/SVG/1.1/DTD/svg11.dtd" >
<svg xmlns="http://www.w3.org/2000/svg" xmlns:xlink="http://www.w3.org/1999/xlink" version="1.1">
<metadata>
Created by FontForge 20201107 at Tue Sep  3 09:46:30 2019
 By 
Copyright 2019 The Sulphur Point Project Authors (https://github.com/noponies)
</metadata>
<defs>
<font id="SulphurPoint-Regular" horiz-adv-x="0" >
  <font-face 
    font-family="Sulphur Point"
    font-weight="400"
    font-stretch="normal"
    units-per-em="1000"
    panose-1="0 0 5 0 0 0 0 0 0 0"
    ascent="790"
    descent="-210"
    x-height="496"
    cap-height="665"
    bbox="-435 -224 1003 892"
    underline-thickness="50"
    underline-position="-100"
    unicode-range="U+000D-25CA"
  />
<missing-glyph horiz-adv-x="579" 
d="M529 -128h-479v792h479v-792zM462 596h-345v-656h345v656z" />
    <glyph glyph-name=".notdef" horiz-adv-x="579" 
d="M529 -128h-479v792h479v-792zM462 596h-345v-656h345v656z" />
    <glyph glyph-name=".null" 
 />
    <glyph glyph-name="nonmarkingreturn" unicode="&#xd;" horiz-adv-x="450" 
 />
    <glyph glyph-name="NULL" 
 />
    <glyph glyph-name="NULL" 
 />
    <glyph glyph-name="space" unicode=" " horiz-adv-x="450" 
 />
    <glyph glyph-name="exclam" unicode="!" horiz-adv-x="179" 
d="M56 146v519h68v-519h-68zM61.5 8q-11.5 12 -11.5 28t11.5 28t27.5 12q17 0 28.5 -11.5t11.5 -28.5q0 -16 -11.5 -28t-28.5 -12q-16 0 -27.5 12z" />
    <glyph glyph-name="quotedbl" unicode="&#x22;" horiz-adv-x="266" 
d="M163 454l-6 210h69l-6 -210h-57zM46 454l-6 210h69l-6 -210h-57z" />
    <glyph glyph-name="numbersign" unicode="#" horiz-adv-x="765" 
d="M528 410v-156h187v-68h-187v-186h-68v186h-156v-186h-68v186h-186v68h186v156h-186v68h186v187h68v-187h156v187h68v-187h187v-68h-187zM460 410h-156v-156h156v156z" />
    <glyph glyph-name="dollar" unicode="$" horiz-adv-x="530" 
d="M490 187q0 -37 -14 -70.5t-41 -57.5q-50 -50 -136 -58v-57h-68v58q-80 11 -128 56q-52 48 -63 131h69q9 -52 41 -82q32 -29 81 -36v229q-169 24 -169 178q0 39 13 74t38 60q45 44 118 51v58h68v-58q87 -8 134 -61.5t55 -129.5h-69q-5 36 -23 65q-31 50 -97 59v-234
q79 -10 121 -39q70 -41 70 -136zM156.5 401q27.5 -24 74.5 -31v225q-45 -6 -70 -31q-18 -19 -25 -42.5t-7 -43.5q0 -53 27.5 -77zM388.5 108q33.5 32 33.5 79q0 45 -25.5 70t-97.5 36v-224q56 7 89.5 39z" />
    <glyph glyph-name="percent" unicode="%" horiz-adv-x="747" 
d="M108.5 647.5q-31.5 -18.5 -50 -50.5t-18.5 -69t18.5 -68.5t50 -50t68.5 -18.5t68.5 18.5t50 50t18.5 68.5t-18.5 69t-50 50.5t-68.5 18.5t-68.5 -18.5zM586 666l-358 -666h-77l358 666h77zM226 577q20 -20 20 -49q0 -28 -20 -48.5t-49 -20.5q-28 0 -48.5 20.5t-20.5 48.5
q0 29 20.5 49t48.5 20q29 0 49 -20zM500.5 253.5q-31.5 -18.5 -50 -50t-18.5 -68.5t18.5 -68.5t50 -50t68.5 -18.5t69 18.5t50.5 50t18.5 68.5t-18.5 68.5t-50.5 50t-69 18.5t-68.5 -18.5zM618 184q20 -20 20 -49q0 -28 -20 -48.5t-49 -20.5q-28 0 -48.5 20.5t-20.5 48.5
q0 29 20.5 49t48.5 20q29 0 49 -20z" />
    <glyph glyph-name="ampersand" unicode="&#x26;" horiz-adv-x="530" 
d="M490 0h-84l-22 32h-1l-2 -1l-2 -2q-52 -33 -113 -33q-55 0 -105 26.5t-82 74.5q-39 57 -39 127q0 19 3 38q7 41 28 76t55 59l-20 28q-17 24 -22.5 43t-5.5 29q0 46 23 84.5t61.5 61.5t83.5 23q46 0 84.5 -23t61.5 -61.5t23 -84.5h-68q0 42 -29.5 71.5t-71.5 29.5
q-41 0 -70.5 -29.5t-29.5 -70.5q0 -3 3.5 -12.5t12.5 -21.5l231 -328q23 36 21 79v24h68v-22q1 -38 -11 -74t-36 -66zM344 88l-179 254q-28 -20 -42.5 -50.5t-14.5 -67.5q0 -49 28 -89q22 -34 56.5 -52.5t72.5 -18.5q44 0 77 23z" />
    <glyph glyph-name="quotesingle" unicode="'" horiz-adv-x="149" 
d="M46 454l-6 210h69l-6 -210h-57z" />
    <glyph glyph-name="parenleft" unicode="(" horiz-adv-x="189" 
d="M118 253q0 -192 34 -374h-69q-33 185 -33 374q0 204 40 412h69q-41 -205 -41 -412z" />
    <glyph glyph-name="parenright" unicode=")" horiz-adv-x="189" 
d="M99 665q40 -208 40 -412q0 -189 -33 -374h-69q34 182 34 374q0 207 -41 412h69z" />
    <glyph glyph-name="asterisk" unicode="*" horiz-adv-x="442" 
d="M280 481l122 -84l-38 -56l-109 76v-102h-68v102l-109 -76l-38 56l122 84l-122 84l38 56l109 -76v120h68v-120l109 76l38 -56z" />
    <glyph glyph-name="plus" unicode="+" horiz-adv-x="550" 
d="M510 246h-201v-201h-68v201h-201v68h201v201h68v-201h201v-68z" />
    <glyph glyph-name="comma" unicode="," horiz-adv-x="221" 
d="M171 107l-69 -209h-62l59 209h72z" />
    <glyph glyph-name="hyphen" unicode="-" horiz-adv-x="432" 
d="M40 246v68h352v-68h-352z" />
    <glyph glyph-name="period" unicode="." horiz-adv-x="150" 
d="M88 13.5q12 11.5 12 28.5t-12 28.5t-29 11.5q-16 0 -27.5 -12t-11.5 -28t11.5 -28t27.5 -12q17 0 29 11.5z" />
    <glyph glyph-name="slash" unicode="/" horiz-adv-x="515" 
d="M475 666l-358 -666h-77l358 666h77z" />
    <glyph glyph-name="zero" unicode="0" horiz-adv-x="504" 
d="M233 670q-52 0 -96.5 -26t-70.5 -70.5t-26 -96.5v-289q0 -52 26 -96.5t70.5 -70.5t96.5 -26h38q53 0 97 26t70 70.5t26 96.5v289q0 52 -26 96.5t-70 70.5t-97 26h-38zM360 565q36 -38 36 -88v-289q0 -50 -36 -88q-37 -37 -89 -37h-38q-51 0 -88 37t-37 88v289q0 51 37 88
t88 37h38q52 0 89 -37z" />
    <glyph glyph-name="one" unicode="1" horiz-adv-x="305" 
d="M255 0h-68v580l-67 -110h-80l119 195h96v-665z" />
    <glyph glyph-name="two" unicode="2" horiz-adv-x="447" 
d="M46 0l-4 30q0 1 -1 12t-1 33q0 48 8 83q14 70 52.5 114t97.5 58q55 14 97.5 45t42.5 89q0 36 -18 66.5t-48 48.5t-66 18h-142v68h142q55 0 101 -27t73 -73t27 -101q0 -80 -61 -135q-49 -45 -132 -65q-78 -20 -99 -118q-5 -26 -5 -50v-28h263v-68h-327z" />
    <glyph glyph-name="three" unicode="3" horiz-adv-x="413" 
d="M352.5 267.5q20.5 -39.5 20.5 -84.5q0 -50 -24.5 -92t-66.5 -66.5t-92 -24.5h-150v68h150q48 0 81.5 33.5t33.5 81.5q0 47 -33.5 81t-81.5 34h-56v68h56q48 0 81.5 34t33.5 81q0 48 -33.5 81.5t-81.5 33.5h-150v69h150q50 0 92 -25t66.5 -67t24.5 -92q0 -45 -20.5 -84.5
t-55.5 -64.5q35 -25 55.5 -64.5z" />
    <glyph glyph-name="four" unicode="4" horiz-adv-x="504" 
d="M375 243h89v-68h-89v-176h-67v176h-268l205 489h74l-179 -421h168v105h67v-105z" />
    <glyph glyph-name="five" unicode="5" horiz-adv-x="455" 
d="M55 0v68h159q36 0 66.5 18t48.5 48.5t18 66.5t-18 66.5t-48.5 48.5t-66.5 18h-164v331h331v-68h-262v-195h95q55 0 101 -27t73 -73t27 -101t-27 -101t-73 -73t-101 -27h-159z" />
    <glyph glyph-name="six" unicode="6" horiz-adv-x="484" 
d="M343.5 373.5q46.5 -27.5 73.5 -74t27 -101.5t-27 -101t-73.5 -73.5t-101.5 -27.5t-101.5 27.5t-73.5 73.5t-27 101q0 44 17 83l165 384h74l-117 -275q31 11 63 11q55 0 101.5 -27.5zM309 83q31 18 49 48.5t18 66.5q0 37 -18 67.5t-49 48.5t-67 18q-37 0 -67.5 -18
t-48.5 -48.5t-18 -67.5q0 -36 18 -66.5t48.5 -48.5t67.5 -18q36 0 67 18z" />
    <glyph glyph-name="seven" unicode="7" horiz-adv-x="428" 
d="M293 596h-253v69h338l-144 -665h-70z" />
    <glyph glyph-name="eight" unicode="8" horiz-adv-x="479" 
d="M439 194q0 -59 -32 -109t-88 -74q-38 -16 -79 -16q-59 0 -109 32t-74 87q-17 40 -17 80q0 51 24.5 96t68.5 72q-31 26 -47 63q-14 31 -14 67q0 49 27 91.5t73 62.5q34 14 67 14q49 0 91.5 -27t62.5 -74q14 -31 14 -67q0 -38 -16 -72t-45 -58q52 -32 76 -88q17 -40 17 -80
zM139 493q0 -21 9 -41q10 -24 30.5 -39.5t45.5 -19.5h15h16q14 2 25 7q38 17 53 55q7 17 7 37q0 19 -8 40q-12 27 -37 43.5t-55 16.5h-1q-19 0 -40 -8q-37 -17 -53 -55q-7 -17 -7 -36zM350 121.5q21 33.5 21 72.5q0 30 -11 53q-13 32 -41 52.5t-63 25.5q-5 -1 -16 -1t-17 1
q-20 -3 -36 -10q-37 -16 -58 -49t-21 -72q0 -26 11 -53q16 -36 48.5 -57.5t72.5 -21.5q27 0 52 11q37 15 58 48.5z" />
    <glyph glyph-name="nine" unicode="9" horiz-adv-x="484" 
d="M140.5 291.5q-46.5 27.5 -73.5 74t-27 101.5t27 101t73.5 73.5t101.5 27.5t101.5 -27.5t73.5 -73.5t27 -101q0 -44 -17 -83l-165 -384h-74l117 275q-31 -11 -63 -11q-55 0 -101.5 27.5zM175 582q-31 -18 -49 -48.5t-18 -66.5q0 -37 18 -67.5t49 -48.5t67 -18
q37 0 67.5 18t48.5 48.5t18 67.5q0 36 -18 66.5t-48.5 48.5t-67.5 18q-36 0 -67 -18z" />
    <glyph glyph-name="colon" unicode=":" horiz-adv-x="189" 
d="M118 14.5q12 11.5 12 28.5t-12 28.5t-29 11.5q-16 0 -27.5 -12t-11.5 -28t11.5 -28t27.5 -12q17 0 29 11.5zM118 345.5q12 11.5 12 28.5t-12 28.5t-29 11.5q-16 0 -27.5 -12t-11.5 -28t11.5 -28t27.5 -12q17 0 29 11.5z" />
    <glyph glyph-name="semicolon" unicode=";" horiz-adv-x="221" 
d="M150 356.5q12 11.5 12 28.5t-12 28.5t-29 11.5q-16 0 -27.5 -12t-11.5 -28t11.5 -28t27.5 -12q17 0 29 11.5zM161 107l-69 -209h-62l59 209h72z" />
    <glyph glyph-name="less" unicode="&#x3c;" horiz-adv-x="668" 
d="M628 0l-588 239v63l588 249v-74l-485 -206l485 -197v-74z" />
    <glyph glyph-name="equal" unicode="=" horiz-adv-x="550" 
d="M510 401h-470v-69h470v69zM40 163v68h470v-68h-470z" />
    <glyph glyph-name="greater" unicode="&#x3e;" horiz-adv-x="668" 
d="M525 271l-485 206v74l588 -249v-63l-588 -239v74z" />
    <glyph glyph-name="question" unicode="?" horiz-adv-x="509" 
d="M238 157v132l99 83q33 28 48.5 57t15.5 64q0 40 -19.5 73.5t-53.5 53t-73 19.5q-40 0 -73.5 -19.5t-53.5 -53t-20 -73.5h-68q0 59 29 108t78 78t108 29q58 0 107 -29t78 -78t29 -108q0 -99 -88 -174l-75 -62v-100h-68zM241 9q-13 13 -13 31q0 19 13 32t31 13q19 0 32 -13
t13 -32q0 -18 -13 -31t-32 -13q-18 0 -31 13z" />
    <glyph glyph-name="at" unicode="@" horiz-adv-x="750" 
d="M543 622q77 -45 122 -122t45 -168q0 -138 -65 -199q-19 -17 -44 -26.5t-51 -9.5q-24 0 -45 9q-23 10 -36 29.5t-13 45.5v35q-43 -35 -99 -35q-41 0 -76.5 20.5t-56 55.5t-20.5 77q0 41 20.5 76.5t56 56t76.5 20.5q55 0 99 -36v36h68v-263v-43q0 -5 1.5 -7.5t6.5 -4.5
q8 -3 18 -3q30 0 48 17q44 42 44 149q0 72 -36 133t-97.5 97t-133.5 36t-133 -36t-97 -97t-36 -133t36 -133.5t97 -97.5t133 -36q34 0 67 9l17 -67q-39 -10 -84 -10q-91 0 -167.5 45t-122 122t-45.5 168t45.5 168t122 122t167.5 45t168 -45zM417 274q25 25 25 60t-25 59.5
t-60 24.5q-34 0 -59 -24.5t-25 -59.5t24.5 -60t59.5 -25t60 25z" />
    <glyph glyph-name="A" unicode="A" horiz-adv-x="632" 
d="M433 245h-234l-86 -245h-73l233 664h86l233 -664h-73zM411 309l-95 272l-95 -272h190z" />
    <glyph glyph-name="B" unicode="B" horiz-adv-x="493" 
d="M428.5 275.5q24.5 -42.5 24.5 -92.5t-24.5 -92t-67 -66.5t-92.5 -24.5h-219v666l195 1q50 0 92 -25t67 -67t25 -92q0 -42 -17.5 -78.5t-48.5 -62.5q41 -24 65.5 -66.5zM326 564q-34 34 -81 34h-127v-231h127q47 0 81 34t34 82q0 47 -34 81zM351 102q34 34 34 81
q0 48 -34 82t-82 34h-151v-231h151q48 0 82 34z" />
    <glyph glyph-name="C" unicode="C" horiz-adv-x="671" 
d="M207 39q-77 45 -122 122t-45 169t45 169.5t122.5 123t168.5 45.5q74 0 141 -30.5t114 -87.5l-52 -44q-38 44 -91.5 68.5t-111.5 24.5q-72 0 -133.5 -36.5t-97.5 -98.5t-36 -134t36 -133.5t97.5 -97.5t133.5 -36q58 0 111.5 24.5t91.5 68.5l52 -44q-47 -56 -114 -87
t-141 -31q-92 0 -169 45z" />
    <glyph glyph-name="D" unicode="D" horiz-adv-x="591" 
d="M50 0v666h168q91 0 167 -45t121 -121t45 -167t-45 -167t-121 -121t-167 -45h-168zM218 68q72 0 133 35.5t96.5 96.5t35.5 133t-35.5 133t-96.5 96.5t-133 35.5h-99v-530h99z" />
    <glyph glyph-name="E" unicode="E" horiz-adv-x="464" 
d="M118 597v-233h199v-64h-199v-232h296v-68h-364v665h364v-68h-296z" />
    <glyph glyph-name="F" unicode="F" horiz-adv-x="454" 
d="M117 597v-231h200v-68h-200v-298h-67v665h364v-68h-297z" />
    <glyph glyph-name="G" unicode="G" horiz-adv-x="693" 
d="M643 313v-180q-29 -40 -67 -69q-18 -14 -46 -29q-75 -39 -156 -39q-91 0 -171 47t-124 130q-22 44 -30 82q-9 38 -9 76q0 76 33 142q22 46 57.5 84t80.5 64q75 42 164 42q23 0 46 -3q59 -8 112.5 -37.5t93.5 -76.5l-52 -44q-45 52 -105 74q-46 18 -97 18q-68 0 -124 -30
q-36 -20 -65 -50t-47 -67q-28 -55 -28 -118q0 -34 9 -69q23 -84 94 -140q35 -26 76.5 -40.5t84.5 -14.5q58 0 111 24.5t91 68.5l1 87h-97v68h164z" />
    <glyph glyph-name="H" unicode="H" horiz-adv-x="545" 
d="M495 665v-665h-67v298h-310v-298h-68v665h68v-299h310v299h67z" />
    <glyph glyph-name="I" unicode="I" horiz-adv-x="168" 
d="M118 665v-665h-68v665h68z" />
    <glyph glyph-name="J" unicode="J" horiz-adv-x="273" 
d="M121 102q34 34 34 81v482h68v-482q0 -50 -24.5 -92t-66.5 -66.5t-92 -24.5v68q47 0 81 34z" />
    <glyph glyph-name="K" unicode="K" horiz-adv-x="493" 
d="M114 274v-274h-64v664h64v-284l243 284h90l-288 -337l294 -327h-92z" />
    <glyph glyph-name="L" unicode="L" horiz-adv-x="376" 
d="M336 68v-68h-286v665h69v-597h217z" />
    <glyph glyph-name="M" unicode="M" horiz-adv-x="743" 
d="M693 665v-663h-69v566l-224 -324h-58l-224 324v-568h-68v665h84l237 -343l237 343h85z" />
    <glyph glyph-name="N" unicode="N" horiz-adv-x="585" 
d="M535 665v-665h-81l-335 537v-537h-69v665h72l345 -552v552h68z" />
    <glyph glyph-name="O" unicode="O" horiz-adv-x="747" 
d="M206 40q-76 45 -121 121t-45 167t45 167.5t121.5 121.5t166.5 45t167 -45t122 -122t45 -167t-45 -166.5t-121.5 -121.5t-167.5 -45t-167 45zM506 98.5q61 35.5 96.5 96.5t35.5 133t-35.5 133t-96.5 96.5t-133 35.5t-133 -35.5t-96.5 -96.5t-35.5 -133t35.5 -133
t96.5 -96.5t133 -35.5t133 35.5z" />
    <glyph glyph-name="P" unicode="P" horiz-adv-x="490" 
d="M343 636q49 -29 78 -78t29 -106t-29 -106t-78 -77.5t-107 -28.5h-117v-240h-69v665h186q58 0 107 -29zM308.5 326.5q33.5 19.5 53 53t19.5 72.5t-19.5 72t-53 52.5t-72.5 19.5h-117v-289h117q39 0 72.5 19.5z" />
    <glyph glyph-name="Q" unicode="Q" horiz-adv-x="747" 
d="M671.5 184.5q-35.5 -69.5 -96.5 -116.5h132v-68h-331h-3q-91 0 -167 45t-121 121t-45 167t45 167.5t121.5 121.5t166.5 45t167 -45t122 -122t45 -167q0 -79 -35.5 -148.5zM143.5 200q35.5 -61 96.5 -96.5t133 -35.5t133 35.5t96.5 96.5t35.5 133t-35.5 133t-96.5 96.5
t-133 35.5t-133 -35.5t-96.5 -96.5t-35.5 -133t35.5 -133z" />
    <glyph glyph-name="R" unicode="R" horiz-adv-x="472" 
d="M217 239l215 -239h-92l-215 239h-6v-239h-69v664h170q58 0 106.5 -28.5t77 -77.5t28.5 -107t-28.5 -106.5t-77 -77t-106.5 -28.5h-3zM119 596v-289h101q39 0 72 19.5t52.5 52.5t19.5 72t-19.5 72.5t-52.5 53t-72 19.5h-101z" />
    <glyph glyph-name="S" unicode="S" horiz-adv-x="536" 
d="M424 472q-5 38 -24 66q-39 60 -129 60q-75 0 -109 -34q-31 -32 -31 -87q0 -61 34 -84t95 -28q58 -5 98 -15.5t67 -28.5q71 -44 71 -138q0 -37 -14.5 -70t-41.5 -59q-61 -60 -167 -60q-107 0 -169 59q-53 49 -64 132h69q9 -50 42 -82q43 -40 123 -40q68 0 110.5 33.5
t42.5 86.5q0 34 -13.5 56.5t-51.5 36.5t-108 20q-192 17 -192 181q0 41 13.5 75.5t38.5 59.5q55 55 156 55h1q103 -1 157.5 -56.5t64.5 -139.5h-69v1z" />
    <glyph glyph-name="T" unicode="T" horiz-adv-x="490" 
d="M450 598h-171v-598h-68v598h-171v67h410v-67z" />
    <glyph glyph-name="U" unicode="U" horiz-adv-x="564" 
d="M166 24.5q-53 31.5 -84.5 84.5t-31.5 116v440h67v-440q0 -45 22 -82.5t60 -59t83 -21.5t83.5 21.5t60.5 59t22 82.5v440h66v-440q0 -63 -31.5 -116t-84.5 -84.5t-116 -31.5t-116 31.5z" />
    <glyph glyph-name="V" unicode="V" horiz-adv-x="631" 
d="M272 1l-232 665h73l203 -581l203 581h72l-232 -665h-87z" />
    <glyph glyph-name="W" unicode="W" horiz-adv-x="926" 
d="M316 100l112 321l-88 245h73l88 -245l116 -321l196 566h73l-232 -666h-74l-115 319l-111 -319h-75l-239 666h73z" />
    <glyph glyph-name="X" unicode="X" horiz-adv-x="570" 
d="M325 333l205 -333h-81l-164 267l-165 -267h-80l205 332l-205 333h80l165 -268l165 268h80z" />
    <glyph glyph-name="Y" unicode="Y" horiz-adv-x="560" 
d="M315 245v-245h-69v243l-206 422h76l164 -335l164 335h76z" />
    <glyph glyph-name="Z" unicode="Z" horiz-adv-x="532" 
d="M492 0h-452v66l368 531h-368v68h452v-68l-367 -528h367v-69z" />
    <glyph glyph-name="bracketleft" unicode="[" horiz-adv-x="289" 
d="M50 -128v792h209v-68h-142v-656h142v-68h-209z" />
    <glyph glyph-name="backslash" unicode="\" horiz-adv-x="515" 
d="M475 0h-77l-358 666h77z" />
    <glyph glyph-name="bracketright" unicode="]" horiz-adv-x="289" 
d="M30 -60h142v656h-142v68h209v-792h-209v68z" />
    <glyph glyph-name="asciicircum" unicode="^" horiz-adv-x="389" 
d="M40 344l112 321h85l112 -321h-71l-84 239l-83 -239h-71z" />
    <glyph glyph-name="underscore" unicode="_" horiz-adv-x="516" 
d="M40 -48h436v-50h-436v50z" />
    <glyph glyph-name="grave" unicode="`" horiz-adv-x="600" 
d="M107 549h-62l-45 137h68z" />
    <glyph glyph-name="a" unicode="a" horiz-adv-x="595" 
d="M545 487v-487h-69v92q-69 -97 -184 -97q-69 0 -127 33.5t-91.5 91.5t-33.5 126q0 69 33.5 127t91.5 91.5t127 33.5q71 0 116.5 -29.5t67.5 -63.5v82h69zM384 87.5q42 24.5 66.5 66.5t24.5 92t-24.5 92.5t-66.5 67t-92 24.5t-92.5 -24.5t-67 -67t-24.5 -92.5t24.5 -92
t67 -66.5t92.5 -24.5t92 24.5z" />
    <glyph glyph-name="b" unicode="b" horiz-adv-x="597" 
d="M117 664v-256q69 93 187 93q69 0 127 -34t92 -92.5t34 -126.5t-34 -126.5t-92 -92.5t-127 -34q-114 0 -187 98v-93h-67v664h67zM144 155.5q25 -42.5 67.5 -67.5t92.5 -25t92 25t67 67.5t25 92.5t-25 92t-67 67t-92 25t-92.5 -25t-67.5 -67t-25 -92t25 -92.5z" />
    <glyph glyph-name="c" unicode="c" horiz-adv-x="524" 
d="M484 84q-36 -42 -85.5 -65.5t-106.5 -23.5q-68 0 -126 34t-92 92t-34 126t34 126t92 92t126 34q57 0 106.5 -23.5t85.5 -65.5l-61 -35q-25 26 -59 40.5t-72 14.5q-50 0 -92 -24.5t-67 -66.5t-25 -92t25 -92t67 -66.5t92 -24.5q38 0 72 14.5t59 40.5z" />
    <glyph glyph-name="d" unicode="d" horiz-adv-x="597" 
d="M547 0h-67v93q-73 -98 -187 -98q-69 0 -127 34t-92 92.5t-34 126.5t34 126.5t92 92.5t127 34q118 0 187 -93v256h67v-664zM453 340q-25 42 -67.5 67t-92.5 25t-92 -25t-67 -67t-25 -92t25 -92.5t67 -67.5t92 -25t92.5 25t67.5 67.5t25 92.5t-25 92z" />
    <glyph glyph-name="e" unicode="e" horiz-adv-x="584" 
d="M112 213q12 -64 63 -106.5t117 -42.5q49 0 90 23t66 63l59 -34q-34 -55 -91 -88t-124 -33q-68 0 -126 34t-92 92t-34 126q0 69 34 126.5t92 91.5t126 34t126 -34t92 -91.5t34 -126.5q0 -12 -2 -34h-430zM206 410.5q-42 -20.5 -68 -56t-26 -76.5h360q0 41 -26 76.5
t-67.5 56t-86.5 20.5q-44 0 -86 -20.5z" />
    <glyph glyph-name="f" unicode="f" horiz-adv-x="315" 
d="M208.5 572.5q-32.5 -29.5 -37.5 -72.5h114v-68h-115v-432h-68v432h-52v68h52q3 47 28.5 86t66 61.5t88.5 22.5v-68q-44 0 -76.5 -29.5z" />
    <glyph glyph-name="g" unicode="g" horiz-adv-x="594" 
d="M544 487v-449q0 -68 -34 -126t-92 -91.5t-126 -33.5q-59 0 -110.5 25t-86.5 69l61 36q25 -29 60.5 -45.5t75.5 -16.5q50 0 92 24.5t66.5 66.5t24.5 92v56q-69 -97 -184 -97q-67 0 -125 36t-92 95.5t-34 126.5t34 123t91.5 89t125.5 33q70 0 116 -29.5t68 -63.5v80h69z
M383 89.5q42 24.5 66.5 66.5t24.5 92t-24.5 92t-66.5 66.5t-92 24.5t-92 -24.5t-67 -66.5t-25 -92t25 -92t67 -66.5t92 -24.5t92 24.5z" />
    <glyph glyph-name="h" unicode="h" horiz-adv-x="497" 
d="M348.5 477.5q45.5 -26.5 72 -72t26.5 -99.5v-306h-69v306q0 35 -17.5 65t-47 47.5t-64.5 17.5t-65 -17.5t-47.5 -47.5t-17.5 -65v-306h-69v667h69v-219q24 28 57.5 42t72.5 14q54 0 99.5 -26.5z" />
    <glyph glyph-name="i" unicode="i" horiz-adv-x="189" 
d="M126 626q13 -13 13 -31q0 -19 -13 -32t-31 -13q-19 0 -32 13t-13 32q0 18 13 31t32 13q18 0 31 -13zM129 500v-500h-69v500h69z" />
    <glyph glyph-name="j" unicode="j" horiz-adv-x="244" 
d="M181 626q13 -13 13 -31q0 -19 -13 -32t-32 -13q-18 0 -31 13t-13 32q0 18 13 31t31 13q19 0 32 -13zM81.5 -111q33.5 34 33.5 81v530h69v-530q0 -50 -24.5 -92t-67 -66.5t-92.5 -24.5v68q48 0 81.5 34z" />
    <glyph glyph-name="k" unicode="k" horiz-adv-x="432" 
d="M301 0l-182 213v-213h-69v670h69v-318l164 148h103l-239 -215l245 -285h-91z" />
    <glyph glyph-name="l" unicode="l" horiz-adv-x="168" 
d="M118 665v-665h-68v665h68z" />
    <glyph glyph-name="m" unicode="m" horiz-adv-x="765" 
d="M624 475.5q42 -24.5 66.5 -67t24.5 -92.5v-316h-68v316q0 48 -34 81.5t-81 33.5q-48 0 -81.5 -33.5t-33.5 -80.5v-1v-316h-69v317q0 47 -34 80.5t-81 33.5t-81 -34.5t-34 -82.5v-314h-68v487h68v-39q20 24 51.5 38t63.5 14q45 0 84.5 -21t64.5 -56q26 35 65.5 56t84.5 21
q50 0 92 -24.5z" />
    <glyph glyph-name="n" unicode="n" horiz-adv-x="487" 
d="M347.5 473.5q45.5 -26.5 72.5 -72t27 -99.5v-302h-69v302q0 35 -17.5 64.5t-47.5 47t-65 17.5t-65 -17.5t-47.5 -47t-17.5 -64.5v-302h-68v487h68v-44q25 28 58.5 42.5t71.5 14.5q54 0 99.5 -26.5z" />
    <glyph glyph-name="o" unicode="o" horiz-adv-x="588" 
d="M166.5 29q-58.5 34 -92.5 92.5t-34 126.5q0 69 34 127.5t92.5 93t126.5 34.5q69 0 127.5 -34.5t93 -93t34.5 -127.5q0 -68 -34.5 -126.5t-93 -92.5t-127.5 -34q-68 0 -126.5 34zM386.5 87q42.5 25 67.5 68t25 93q0 51 -25 94t-67.5 68t-93.5 25q-50 0 -92.5 -25
t-67.5 -68t-25 -94q0 -50 25 -93t67.5 -68t92.5 -25q51 0 93.5 25z" />
    <glyph glyph-name="p" unicode="p" horiz-adv-x="595" 
d="M50 -213v700h68v-83q35 49 82 73.5t103 24.5q68 0 126 -34t92 -92t34 -126t-34 -126t-92 -92t-126 -34q-71 0 -117 29.5t-68 63.5v-304h-68zM211 408.5q-42 -24.5 -67 -66.5t-25 -92t25 -92t67 -67t92 -25t92 25t66.5 67t24.5 92t-24.5 92t-66.5 66.5t-92 24.5t-92 -24.5
z" />
    <glyph glyph-name="q" unicode="q" horiz-adv-x="595" 
d="M477 91q-22 -34 -68 -63.5t-117 -29.5q-68 0 -126 34t-92 92t-34 126t34 126t92 92t126 34q56 0 103 -24.5t82 -73.5v83h68v-700h-68v304zM200 408.5q-42 -24.5 -66.5 -66.5t-24.5 -92t24.5 -92t66.5 -67t92 -25t92 25t67 67t25 92t-25 92t-67 66.5t-92 24.5t-92 -24.5z
" />
    <glyph glyph-name="r" unicode="r" horiz-adv-x="387" 
d="M233 436q-47 0 -81 -34t-34 -81v-321h-68v321q0 54 28.5 98.5t74.5 66.5l2 1q37 17 78 17q64 0 114 -39l-68 -39q-23 10 -46 10z" />
    <glyph glyph-name="s" unicode="s" horiz-adv-x="431" 
d="M135 90q28 -26 82 -26q47 0 76 22t29 57q0 33 -13 49t-33.5 20.5t-56.5 5.5q-52 3 -85 11.5t-60 38.5q-33 41 -33 90q0 12 1 18q8 63 53 96.5t121 33.5h1q56 0 91 -21t54 -51q20 -33 25 -69h-70q-2 14 -13 33q-25 38 -87 40q-63 0 -83 -21t-24 -49q-1 -4 -1 -11
q0 -24 17 -43q14 -17 36 -22.5t63 -8.5q33 -2 56.5 -6t44.5 -15q65 -35 65 -119q0 -29 -11.5 -55.5t-32.5 -46.5q-47 -46 -129 -46q-80 0 -130 45q-39 38 -48 94h70q8 -28 25 -44z" />
    <glyph glyph-name="t" unicode="t" horiz-adv-x="315" 
d="M275 432h-83v-432h-69v432h-83v68h83v165h69v-165h83v-68z" />
    <glyph glyph-name="u" unicode="u" horiz-adv-x="487" 
d="M139.5 22.5q-45.5 26.5 -72.5 72t-27 99.5v306h69v-306q0 -35 17.5 -65t47.5 -47.5t65 -17.5t65 17.5t47.5 47.5t17.5 65v306h68v-495h-68v48q-25 -28 -58.5 -42.5t-71.5 -14.5q-54 0 -99.5 26.5z" />
    <glyph glyph-name="v" unicode="v" horiz-adv-x="547" 
d="M507 498l-197 -498h-73l-197 498h73l161 -403l160 403h73z" />
    <glyph glyph-name="w" unicode="w" horiz-adv-x="826" 
d="M786 500l-197 -500h-72l-103 259l-103 -259h-72l-199 500h74l161 -405l102 256l-59 149h74l161 -405l160 405h73z" />
    <glyph glyph-name="x" unicode="x" horiz-adv-x="470" 
d="M275 244l150 -244h-81l-109 178l-110 -178h-80l149 244l-154 252h80l115 -187l114 187h81z" />
    <glyph glyph-name="y" unicode="y" horiz-adv-x="524" 
d="M474 500v-496q0 -59 -29 -109t-79 -79t-109 -29q-57 0 -105 27t-78 73l60 34q20 -30 52.5 -48t70.5 -18q40 0 74.5 20t54.5 54.5t20 74.5v53q-30 -28 -68 -43.5t-81 -15.5q-58 0 -107.5 28.5t-79 76.5t-30.5 106v291h68v-285q0 -40 20 -74.5t54.5 -54.5t74.5 -20t74.5 20
t54.5 54.5t20 74.5v285h68z" />
    <glyph glyph-name="z" unicode="z" horiz-adv-x="485" 
d="M445 68v-68h-405v68l313 359h-313v69h405v-69l-312 -359h312z" />
    <glyph glyph-name="braceleft" unicode="{" horiz-adv-x="327" 
d="M183.5 588q-9.5 -9 -9.5 -23v-143q1 -31 -5 -68.5t-27 -58.5q-10 -9 -36 -25q24 -13 36 -25q21 -21 27 -58.5t5 -68.5v-142q0 -14 9.5 -23t22.5 -9h91v-68h-91q-41 0 -70.5 29.5t-29.5 70.5v145q1 24 -2.5 47.5t-9.5 29.5q-8 9 -44 28v89q36 19 44 28q6 6 9.5 29.5
t2.5 47.5v145q0 41 29.5 70.5t70.5 29.5h91v-68h-91q-13 0 -22.5 -9z" />
    <glyph glyph-name="bar" unicode="|" horiz-adv-x="172" 
d="M50 0v665h72v-665h-72z" />
    <glyph glyph-name="braceright" unicode="}" horiz-adv-x="327" 
d="M50 597v68h91q41 0 70.5 -29.5t29.5 -70.5v-145q-1 -24 2.5 -47.5t9.5 -29.5q8 -9 44 -28v-89q-36 -19 -44 -28q-6 -6 -9.5 -29.5t-2.5 -47.5v-145q0 -41 -29.5 -70.5t-70.5 -29.5h-91v68h91q14 0 23 9t9 23v142q-1 31 5 68.5t27 58.5q12 12 36 25q-26 16 -36 25
q-21 21 -27 58.5t-5 68.5v143q0 14 -9 23t-23 9h-91z" />
    <glyph glyph-name="asciitilde" unicode="~" horiz-adv-x="589" 
d="M416 290q-38 0 -67.5 11.5t-69.5 32.5l-25 12.5t-35.5 14.5t-31.5 5q-50 0 -87 -65l-60 35q28 48 64.5 73t78.5 26h3q33 0 60 -10t65 -31q34 -18 56.5 -26.5t49.5 -9.5q35 0 73 65l59 -34q-55 -99 -132 -99h-1z" />
    <glyph glyph-name="uni00A0" unicode="&#xa0;" horiz-adv-x="450" 
 />
    <glyph glyph-name="exclamdown" unicode="&#xa1;" horiz-adv-x="189" 
d="M117.5 490.5q11.5 -11.5 11.5 -28.5q0 -16 -11.5 -28t-28.5 -12q-16 0 -27.5 12t-11.5 28t11.5 28t27.5 12q17 0 28.5 -11.5zM124 -167h-68v519h68v-519z" />
    <glyph glyph-name="cent" unicode="&#xa2;" horiz-adv-x="525" 
d="M364 152.5q34 14.5 60 40.5l61 -35q-31 -37 -74 -60t-92 -28v-48h-69v51q-59 10 -107 45.5t-75.5 89t-27.5 114.5q0 62 27.5 115.5t75.5 89t107 45.5v52h69v-50q50 -5 92.5 -28t73.5 -60l-61 -35q-26 26 -60 40.5t-72 14.5q-50 0 -92 -24.5t-67 -67t-25 -92.5t25 -92
t67 -67t92 -25q38 0 72 14.5z" />
    <glyph glyph-name="sterling" unicode="&#xa3;" horiz-adv-x="398" 
d="M209 587q-34 -34 -34 -81v-69h116v-69h-116v-299h183v-69h-318v69h67v299h-53v69h53v69q0 50 24.5 92t66.5 67t92 25h68v-69h-67q-48 0 -82 -34z" />
    <glyph glyph-name="currency" unicode="&#xa4;" horiz-adv-x="586" 
d="M495 98l45 -45l-49 -49l-45 45q-67 -51 -153 -51q-84 0 -153 51l-45 -45l-48 49l45 45q-25 32 -38.5 71t-13.5 81q0 85 52 153l-45 45l48 49l45 -45q69 51 153 51q86 0 153 -51l45 45l49 -49l-45 -45q51 -67 51 -153q0 -85 -51 -152zM397 98q27 19 48 49q32 44 32 103
q0 60 -32 104q-21 30 -48 49q-48 32 -104 32q-57 0 -103 -32q-29 -20 -49 -49q-32 -46 -32 -104q0 -57 32 -103q20 -29 49 -49q46 -32 103 -32q56 0 104 32z" />
    <glyph glyph-name="yen" unicode="&#xa5;" horiz-adv-x="563" 
d="M350 316h120v-69h-154v-67h154v-69h-154v-111h-69v111h-154v69h154v65l-1 2h-153v69h119l-172 352h77l164 -336l165 336h77z" />
    <glyph glyph-name="brokenbar" unicode="&#xa6;" horiz-adv-x="172" 
d="M50 403v263h72v-263h-72zM50 0v263h72v-263h-72z" />
    <glyph glyph-name="section" unicode="&#xa7;" horiz-adv-x="430" 
d="M75 426l-1 2q-34 39 -34 93q0 13 1 19q8 62 53 95.5t121 33.5h1q98 0 145 -71q18 -30 26 -71h-71q-3 18 -13 34q-25 40 -87 40q-63 0 -83 -21t-24 -49q-1 -4 -1 -11q0 -28 17 -47l10 -9q20 -16 59 -16q88 0 132 -23q64 -34 64 -119q0 -54 -35 -92l1 -2q34 -37 34 -91
q0 -72 -46.5 -111t-128.5 -39h-1q-98 0 -145 71q-18 30 -26 71h70q6 -21 14 -34q25 -40 87 -40q63 0 83 21t24 49q3 34 -16 58l-10 9q-20 16 -59 16q-88 0 -132 23q-64 34 -64 119q0 54 35 92zM137.5 274.5q28.5 -14.5 98.5 -14.5q35 0 60 -9q25 22 25 55q0 45 -28.5 59.5
t-98.5 14.5q-36 0 -60 9q-25 -22 -25 -55q0 -45 28.5 -59.5z" />
    <glyph glyph-name="dieresis" unicode="&#xa8;" horiz-adv-x="600" 
d="M246 560.5q12 11.5 12 28.5t-12 28.5t-29 11.5q-16 0 -27.5 -12t-11.5 -28t11.5 -28t27.5 -12q17 0 29 11.5zM68 560.5q12 11.5 12 28.5t-12 28.5t-29 11.5q-16 0 -27.5 -12t-11.5 -28t11.5 -28t27.5 -12q17 0 29 11.5z" />
    <glyph glyph-name="copyright" unicode="&#xa9;" horiz-adv-x="750" 
d="M207 621q-77 -45 -122 -122t-45 -168t45 -168t122 -122t168 -45t168 45t122 122t45 168t-45 168t-122 122t-168 45t-168 -45zM508.5 561q61.5 -36 97.5 -97t36 -133t-36 -133.5t-97.5 -97.5t-133.5 -36t-133 36t-97 97.5t-36 133.5t36 133t97 97t133 36t133.5 -36z
M463 165q37 17 63 49l-52 44q-17 -20 -40 -30.5t-49 -10.5q-47 0 -81 34t-34 82q0 47 34 81t81 34q26 0 49 -10.5t40 -30.5l52 44q-26 32 -63 49t-78 17q-50 0 -92 -25t-67 -67t-25 -92t25 -92.5t67 -67.5t92 -25q41 0 78 17z" />
    <glyph glyph-name="ordfeminine" unicode="&#xaa;" horiz-adv-x="356" 
d="M316 665v-274h-47v35q-18 -17 -42 -26t-50 -9q-37 0 -68.5 18.5t-50 50t-18.5 68.5t18.5 68.5t50 50t68.5 18.5q26 0 50 -9t42 -26v35h47zM240 465q26 26 26 63t-26 63t-63 26t-63 -26t-26 -63t26 -63t63 -26t63 26z" />
    <glyph glyph-name="guillemotleft" unicode="&#xab;" horiz-adv-x="564" 
d="M228 87l-188 191l179 193h93l-177 -191l189 -193h-96zM428 87l-189 191l179 193h94l-178 -191l190 -193h-96z" />
    <glyph glyph-name="logicalnot" unicode="&#xac;" horiz-adv-x="581" 
d="M473 108v156h-433v68l501 1v-225h-68z" />
    <glyph glyph-name="uni00AD" unicode="&#xad;" horiz-adv-x="432" 
d="M40 246v68h352v-68h-352z" />
    <glyph glyph-name="registered" unicode="&#xae;" horiz-adv-x="540" 
d="M385 638q53 -31 84 -84t31 -115t-31 -115t-84 -84t-115 -31t-115 31t-84 84t-31 115t31 115t84 84t115 31t115 -31zM360.5 281.5q41.5 24.5 66 66.5t24.5 91t-24.5 90.5t-66 66t-90.5 24.5t-90.5 -24.5t-66 -66t-24.5 -90.5t24.5 -91t66 -66.5t90.5 -24.5t90.5 24.5z
M340.5 435q-16.5 -23 -42.5 -32l68 -76h-65l-55 61v-61h-49v246h72q36 0 62 -25.5t26 -61.5q0 -28 -16.5 -51zM246 447h23q16 0 27.5 11.5t11.5 27.5t-11.5 27t-27.5 11h-23v-77z" />
    <glyph glyph-name="macron" unicode="&#xaf;" horiz-adv-x="600" 
d="M-1 570v50h281v-50h-281z" />
    <glyph glyph-name="degree" unicode="&#xb0;" horiz-adv-x="355" 
d="M108.5 683.5q-31.5 -18.5 -50 -50t-18.5 -68.5t18.5 -68.5t50 -50t68.5 -18.5t69 18.5t50.5 50t18.5 68.5t-18.5 68.5t-50.5 50t-69 18.5t-68.5 -18.5zM240 628q26 -26 26 -63t-26 -63t-63 -26t-63 26t-26 63t26 63t63 26t63 -26z" />
    <glyph glyph-name="plusminus" unicode="&#xb1;" horiz-adv-x="550" 
d="M510 381v-69h-201v-125h-68v125h-201v69h201v125h68v-125h201zM40 144h470v-69h-470v69z" />
    <glyph glyph-name="uni00B2" unicode="&#xb2;" horiz-adv-x="313" 
d="M28 205q-5 40 -5 60q0 26 6 57q10 50 37.5 81.5t71.5 42.5q94 24 94 89q0 36 -26 62t-62 26h-100v57h100q40 0 73.5 -19.5t53 -53t19.5 -72.5q0 -59 -45 -99q-34 -31 -94 -46q-52 -12 -65 -79q-5 -21 -5 -48h185v-58h-238z" />
    <glyph glyph-name="uni00B3" unicode="&#xb3;" horiz-adv-x="289" 
d="M252.5 395.5q13.5 -27.5 13.5 -57.5q0 -36 -18 -66.5t-48.5 -48.5t-66.5 -18h-110v58h110q32 0 54 21.5t22 53.5t-22 54t-54 22h-44v57h44q32 0 54 22.5t22 53.5q0 32 -22 53.5t-54 21.5h-110v58h110q36 0 66.5 -18t48.5 -48.5t18 -66.5q0 -31 -13.5 -58.5t-36.5 -46.5
q23 -19 36.5 -46.5z" />
    <glyph glyph-name="acute" unicode="&#xb4;" horiz-adv-x="600" 
d="M107 686l-45 -137h-62l39 137h68z" />
    <glyph glyph-name="uni00B5" unicode="&#xb5;" horiz-adv-x="487" 
d="M437 500v-495h-68v48q-25 -28 -58.5 -42.5t-71.5 -14.5q-74 0 -130 48v-129h-69v585h69v-306q0 -35 17.5 -65t47.5 -47.5t65 -17.5t65 17.5t47.5 47.5t17.5 65v306h68z" />
    <glyph glyph-name="paragraph" unicode="&#xb6;" horiz-adv-x="493" 
d="M314 0h-68v352h-50q-42 0 -78 21t-57 57t-21 79q0 42 21 78t57 57t78 21h118v-665zM375 0v665h68v-665h-68z" />
    <glyph glyph-name="periodcentered" unicode="&#xb7;" horiz-adv-x="189" 
d="M118 279.5q12 11.5 12 28.5t-12 28.5t-29 11.5q-16 0 -27.5 -12t-11.5 -28t11.5 -28t27.5 -12q17 0 29 11.5z" />
    <glyph glyph-name="cedilla" unicode="&#xb8;" horiz-adv-x="600" 
d="M139 -53.5q22 -26.5 22 -60.5q0 -40 -28 -68t-68 -28q-37 0 -65 25l35 38q13 -11 30 -11q18 0 31 13t13 31t-13 31.5t-31 13.5q-6 0 -18 -4l-20 47l16 41h55l-14 -35q33 -7 55 -33.5z" />
    <glyph glyph-name="uni00B9" unicode="&#xb9;" horiz-adv-x="212" 
d="M182 210h-56v378l-39 -64h-68l89 146h74v-460z" />
    <glyph glyph-name="ordmasculine" unicode="&#xba;" horiz-adv-x="355" 
d="M108.5 647.5q-31.5 -18.5 -50 -50t-18.5 -68.5t18.5 -68.5t50 -50t68.5 -18.5t69 18.5t50.5 50t18.5 68.5t-18.5 68.5t-50.5 50t-69 18.5t-68.5 -18.5zM240 592q26 -26 26 -63t-26 -63t-63 -26t-63 26t-26 63t26 63t63 26t63 -26z" />
    <glyph glyph-name="guillemotright" unicode="&#xbb;" horiz-adv-x="564" 
d="M230 280l-178 191h94l179 -193l-189 -191h-96zM429 280l-177 191h93l179 -193l-188 -191h-96z" />
    <glyph glyph-name="onequarter" unicode="&#xbc;" horiz-adv-x="831" 
d="M203 210h-56v378l-39 -64h-68l89 146h74v-460zM603 666l-358 -666h-56l358 666h56zM729 175h62v-58h-62v-123h-57v123h-191l149 353h62l-125 -295h105v74h57v-74z" />
    <glyph glyph-name="onehalf" unicode="&#xbd;" horiz-adv-x="843" 
d="M203 210h-56v378l-39 -64h-68l89 146h74v-460zM606 666l-358 -666h-56l358 666h56zM541 -5q-5 40 -5 60q0 26 6 57q10 50 37.5 81.5t71.5 42.5q94 24 94 89q0 36 -26 62t-62 26h-100v57h100q40 0 73.5 -19.5t53 -53t19.5 -72.5q0 -59 -45 -99q-34 -31 -94 -46
q-52 -12 -65 -79q-5 -21 -5 -48h185v-58h-238z" />
    <glyph glyph-name="threequarters" unicode="&#xbe;" horiz-adv-x="892" 
d="M269.5 395.5q13.5 -27.5 13.5 -57.5q0 -36 -18 -66.5t-48.5 -48.5t-66.5 -18h-110v58h110q32 0 54 21.5t22 53.5t-22 54t-54 22h-44v57h44q32 0 54 22.5t22 53.5q0 32 -22 53.5t-54 21.5h-110v58h110q36 0 66.5 -18t48.5 -48.5t18 -66.5q0 -31 -13.5 -58.5t-36.5 -46.5
q23 -19 36.5 -46.5zM640 666l-358 -666h-56l358 666h56zM790 175h62v-58h-62v-123h-57v123h-191l149 353h62l-125 -295h105v74h57v-74z" />
    <glyph glyph-name="questiondown" unicode="&#xbf;" horiz-adv-x="509" 
d="M268 491q13 -13 13 -31q0 -19 -13 -32t-31 -13q-19 0 -32 13t-13 32q0 18 13 31t32 13q18 0 31 -13zM271 343v-132l-99 -83q-33 -28 -48.5 -57t-15.5 -64q0 -40 19.5 -73.5t53.5 -53t73 -19.5q40 0 73.5 19.5t53.5 53t20 73.5h68q0 -59 -29 -108t-78 -78t-108 -29
q-58 0 -107 29t-78 78t-29 108q0 99 88 174l75 62v100h68z" />
    <glyph glyph-name="Agrave" unicode="&#xc0;" horiz-adv-x="632" 
d="M433 245h-234l-86 -245h-73l233 664h86l233 -664h-73zM411 309l-95 272l-95 -272h190zM341 714h-62l-45 137h68z" />
    <glyph glyph-name="Aacute" unicode="&#xc1;" horiz-adv-x="632" 
d="M433 245h-234l-86 -245h-73l233 664h86l233 -664h-73zM411 309l-95 272l-95 -272h190zM438 851l-45 -137h-62l39 137h68z" />
    <glyph glyph-name="Acircumflex" unicode="&#xc2;" horiz-adv-x="632" 
d="M433 245h-234l-86 -245h-73l233 664h86l233 -664h-73zM411 309l-95 272l-95 -272h190zM315 763l-54 -53h-78l133 131l127 -131h-76z" />
    <glyph glyph-name="Atilde" unicode="&#xc3;" horiz-adv-x="632" 
d="M433 245h-234l-86 -245h-73l233 664h86l233 -664h-73zM411 309l-95 272l-95 -272h190zM470 766q-22 -35 -45 -51.5t-50 -16.5q-17 0 -33.5 6t-37.5 17q-18 9 -30 13.5t-24 5.5q-20 0 -39 -33l-4 -9l-45 36q11 20 27 35q26 27 60 27q20 0 37.5 -6t43.5 -19
q19 -10 29.5 -13.5t19.5 -2.5q14 1 24.5 12.5t21.5 33.5z" />
    <glyph glyph-name="Adieresis" unicode="&#xc4;" horiz-adv-x="632" 
d="M433 245h-234l-86 -245h-73l233 664h86l233 -664h-73zM411 309l-95 272l-95 -272h190zM429 725.5q12 11.5 12 28.5t-12 28.5t-29 11.5q-16 0 -27.5 -12t-11.5 -28t11.5 -28t27.5 -12q17 0 29 11.5zM251 725.5q12 11.5 12 28.5t-12 28.5t-29 11.5q-16 0 -27.5 -12
t-11.5 -28t11.5 -28t27.5 -12q17 0 29 11.5z" />
    <glyph glyph-name="Aring" unicode="&#xc5;" horiz-adv-x="632" 
d="M433 245h-234l-86 -245h-73l233 664h86l233 -664h-73zM411 309l-95 272l-95 -272h190zM273 722q-20 11 -33 30q-15 23 -15 50q0 24 11 43.5t30 31.5q22 15 50 15q22 0 42.5 -10.5t32.5 -29.5q15 -22 15 -50q0 -22 -10.5 -42.5t-29.5 -33.5q-24 -15 -50 -15q-23 0 -43 11z
M290 840q-15 -9 -20 -29l-1 -9q0 -13 8 -26q7 -10 17.5 -15.5t21.5 -5.5q12 0 25 8q10 7 16 17.5t6 21.5q0 12 -8 25q-16 21 -39 21q-15 0 -26 -8z" />
    <glyph glyph-name="AE" unicode="&#xc6;" horiz-adv-x="794" 
d="M458 365h199v-68h-199v-230h296v-68h-364v244h-192l-85 -243h-73l233 664h481v-68h-296v-231zM390 311v285h-69l-5 -15l-94 -270h168z" />
    <glyph glyph-name="Ccedilla" unicode="&#xc7;" horiz-adv-x="671" 
d="M487.5 87.5q53.5 24.5 91.5 68.5l52 -44q-43 -51 -102.5 -81.5t-126.5 -35.5l-6 -15q33 -7 55 -33.5t22 -60.5q0 -40 -28 -68t-68 -28q-37 0 -65 25l35 38q13 -11 30 -11q18 0 31 13t13 31t-13 31.5t-31 13.5q-6 0 -18 -4l-20 47l8 21q-85 7 -155.5 53.5t-111 121
t-40.5 160.5q0 92 45 169.5t122.5 123t168.5 45.5q74 0 141 -30.5t114 -87.5l-52 -44q-38 44 -91.5 68.5t-111.5 24.5q-72 0 -133.5 -36.5t-97.5 -98.5t-36 -134t36 -133.5t97.5 -97.5t133.5 -36q58 0 111.5 24.5z" />
    <glyph glyph-name="Egrave" unicode="&#xc8;" horiz-adv-x="464" 
d="M118 597v-233h199v-64h-199v-232h296v-68h-364v665h364v-68h-296zM252 714h-62l-45 137h68z" />
    <glyph glyph-name="Eacute" unicode="&#xc9;" horiz-adv-x="464" 
d="M118 597v-233h199v-64h-199v-232h296v-68h-364v665h364v-68h-296zM349 851l-45 -137h-62l39 137h68z" />
    <glyph glyph-name="Ecircumflex" unicode="&#xca;" horiz-adv-x="464" 
d="M118 597v-233h199v-64h-199v-232h296v-68h-364v665h364v-68h-296zM226 763l-54 -53h-78l133 131l127 -131h-76z" />
    <glyph glyph-name="Edieresis" unicode="&#xcb;" horiz-adv-x="464" 
d="M118 597v-233h199v-64h-199v-232h296v-68h-364v665h364v-68h-296zM340 725.5q12 11.5 12 28.5t-12 28.5t-29 11.5q-16 0 -27.5 -12t-11.5 -28t11.5 -28t27.5 -12q17 0 29 11.5zM162 725.5q12 11.5 12 28.5t-12 28.5t-29 11.5q-16 0 -27.5 -12t-11.5 -28t11.5 -28
t27.5 -12q17 0 29 11.5z" />
    <glyph glyph-name="Igrave" unicode="&#xcc;" horiz-adv-x="202" 
d="M152 665v-665h-68v665h68zM147 714h-62l-45 137h68z" />
    <glyph glyph-name="Iacute" unicode="&#xcd;" horiz-adv-x="213" 
d="M118 665v-665h-68v665h68zM163 851l-45 -137h-62l39 137h68z" />
    <glyph glyph-name="Icircumflex" unicode="&#xce;" horiz-adv-x="340" 
d="M204 665v-665h-68v665h68zM172 763l-54 -53h-78l133 131l127 -131h-76z" />
    <glyph glyph-name="Idieresis" unicode="&#xcf;" horiz-adv-x="358" 
d="M213 665v-665h-68v665h68zM296 725.5q12 11.5 12 28.5t-12 28.5t-29 11.5q-16 0 -27.5 -12t-11.5 -28t11.5 -28t27.5 -12q17 0 29 11.5zM118 725.5q12 11.5 12 28.5t-12 28.5t-29 11.5q-16 0 -27.5 -12t-11.5 -28t11.5 -28t27.5 -12q17 0 29 11.5z" />
    <glyph glyph-name="Eth" unicode="&#xd0;" horiz-adv-x="633" 
d="M427 621q76 -45 121 -121t45 -167t-45 -167t-121 -121t-167 -45h-168v313h-71v50h71v303h168q91 0 167 -45zM393 103.5q61 35.5 96.5 96.5t35.5 133t-35.5 133t-96.5 96.5t-133 35.5h-99v-235h202v-50h-202v-245h99q72 0 133 35.5z" />
    <glyph glyph-name="Ntilde" unicode="&#xd1;" horiz-adv-x="585" 
d="M535 665v-665h-81l-335 537v-537h-69v665h72l345 -552v552h68zM447 766q-22 -35 -45 -51.5t-50 -16.5q-17 0 -33.5 6t-37.5 17q-18 9 -30 13.5t-24 5.5q-20 0 -39 -33l-4 -9l-45 36q11 20 27 35q26 27 60 27q20 0 37.5 -6t43.5 -19q19 -10 29.5 -13.5t19.5 -2.5
q14 1 24.5 12.5t21.5 33.5z" />
    <glyph glyph-name="Ograve" unicode="&#xd2;" horiz-adv-x="747" 
d="M206 40q-76 45 -121 121t-45 167t45 167.5t121.5 121.5t166.5 45t167 -45t122 -122t45 -167t-45 -166.5t-121.5 -121.5t-167.5 -45t-167 45zM506 98.5q61 35.5 96.5 96.5t35.5 133t-35.5 133t-96.5 96.5t-133 35.5t-133 -35.5t-96.5 -96.5t-35.5 -133t35.5 -133
t96.5 -96.5t133 -35.5t133 35.5zM399 714h-62l-45 137h68z" />
    <glyph glyph-name="Oacute" unicode="&#xd3;" horiz-adv-x="747" 
d="M206 40q-76 45 -121 121t-45 167t45 167.5t121.5 121.5t166.5 45t167 -45t122 -122t45 -167t-45 -166.5t-121.5 -121.5t-167.5 -45t-167 45zM506 98.5q61 35.5 96.5 96.5t35.5 133t-35.5 133t-96.5 96.5t-133 35.5t-133 -35.5t-96.5 -96.5t-35.5 -133t35.5 -133
t96.5 -96.5t133 -35.5t133 35.5zM496 851l-45 -137h-62l39 137h68z" />
    <glyph glyph-name="Ocircumflex" unicode="&#xd4;" horiz-adv-x="747" 
d="M206 40q-76 45 -121 121t-45 167t45 167.5t121.5 121.5t166.5 45t167 -45t122 -122t45 -167t-45 -166.5t-121.5 -121.5t-167.5 -45t-167 45zM506 98.5q61 35.5 96.5 96.5t35.5 133t-35.5 133t-96.5 96.5t-133 35.5t-133 -35.5t-96.5 -96.5t-35.5 -133t35.5 -133
t96.5 -96.5t133 -35.5t133 35.5zM373 763l-54 -53h-78l133 131l127 -131h-76z" />
    <glyph glyph-name="Otilde" unicode="&#xd5;" horiz-adv-x="747" 
d="M206 40q-76 45 -121 121t-45 167t45 167.5t121.5 121.5t166.5 45t167 -45t122 -122t45 -167t-45 -166.5t-121.5 -121.5t-167.5 -45t-167 45zM506 98.5q61 35.5 96.5 96.5t35.5 133t-35.5 133t-96.5 96.5t-133 35.5t-133 -35.5t-96.5 -96.5t-35.5 -133t35.5 -133
t96.5 -96.5t133 -35.5t133 35.5zM528 766q-22 -35 -45 -51.5t-50 -16.5q-17 0 -33.5 6t-37.5 17q-18 9 -30 13.5t-24 5.5q-20 0 -39 -33l-4 -9l-45 36q11 20 27 35q26 27 60 27q20 0 37.5 -6t43.5 -19q19 -10 29.5 -13.5t19.5 -2.5q14 1 24.5 12.5t21.5 33.5z" />
    <glyph glyph-name="Odieresis" unicode="&#xd6;" horiz-adv-x="747" 
d="M206 40q-76 45 -121 121t-45 167t45 167.5t121.5 121.5t166.5 45t167 -45t122 -122t45 -167t-45 -166.5t-121.5 -121.5t-167.5 -45t-167 45zM506 98.5q61 35.5 96.5 96.5t35.5 133t-35.5 133t-96.5 96.5t-133 35.5t-133 -35.5t-96.5 -96.5t-35.5 -133t35.5 -133
t96.5 -96.5t133 -35.5t133 35.5zM487 725.5q12 11.5 12 28.5t-12 28.5t-29 11.5q-16 0 -27.5 -12t-11.5 -28t11.5 -28t27.5 -12q17 0 29 11.5zM309 725.5q12 11.5 12 28.5t-12 28.5t-29 11.5q-16 0 -27.5 -12t-11.5 -28t11.5 -28t27.5 -12q17 0 29 11.5z" />
    <glyph glyph-name="multiply" unicode="&#xd7;" horiz-adv-x="461" 
d="M279 280l142 -142l-48 -48l-142 142l-142 -142l-49 48l142 142l-142 142l49 48l142 -142l142 142l48 -48z" />
    <glyph glyph-name="Oslash" unicode="&#xd8;" horiz-adv-x="747" 
d="M667 486.5q40 -73.5 40 -158.5q0 -90 -45 -166.5t-121.5 -121.5t-167.5 -45q-68 0 -129 26l-11 -21h-77l29 53q-67 46 -106 118.5t-39 156.5q0 91 45 167.5t121.5 121.5t166.5 45q65 0 126 -25l15 29h77l-33 -60q69 -46 109 -119.5zM137.5 207q29.5 -56 79.5 -93l249 462
q-45 17 -93 17q-72 0 -133 -35.5t-96.5 -96.5t-35.5 -133q0 -65 29.5 -121zM506 98.5q61 35.5 96.5 96.5t35.5 133q0 66 -30 122.5t-82 93.5l-249 -463q45 -18 96 -18q72 0 133 35.5z" />
    <glyph glyph-name="Ugrave" unicode="&#xd9;" horiz-adv-x="564" 
d="M166 24.5q-53 31.5 -84.5 84.5t-31.5 116v440h67v-440q0 -45 22 -82.5t60 -59t83 -21.5t83.5 21.5t60.5 59t22 82.5v440h66v-440q0 -63 -31.5 -116t-84.5 -84.5t-116 -31.5t-116 31.5zM307 714h-62l-45 137h68z" />
    <glyph glyph-name="Uacute" unicode="&#xda;" horiz-adv-x="564" 
d="M166 24.5q-53 31.5 -84.5 84.5t-31.5 116v440h67v-440q0 -45 22 -82.5t60 -59t83 -21.5t83.5 21.5t60.5 59t22 82.5v440h66v-440q0 -63 -31.5 -116t-84.5 -84.5t-116 -31.5t-116 31.5zM404 851l-45 -137h-62l39 137h68z" />
    <glyph glyph-name="Ucircumflex" unicode="&#xdb;" horiz-adv-x="564" 
d="M166 24.5q-53 31.5 -84.5 84.5t-31.5 116v440h67v-440q0 -45 22 -82.5t60 -59t83 -21.5t83.5 21.5t60.5 59t22 82.5v440h66v-440q0 -63 -31.5 -116t-84.5 -84.5t-116 -31.5t-116 31.5zM281 763l-54 -53h-78l133 131l127 -131h-76z" />
    <glyph glyph-name="Udieresis" unicode="&#xdc;" horiz-adv-x="564" 
d="M166 24.5q-53 31.5 -84.5 84.5t-31.5 116v440h67v-440q0 -45 22 -82.5t60 -59t83 -21.5t83.5 21.5t60.5 59t22 82.5v440h66v-440q0 -63 -31.5 -116t-84.5 -84.5t-116 -31.5t-116 31.5zM395 725.5q12 11.5 12 28.5t-12 28.5t-29 11.5q-16 0 -27.5 -12t-11.5 -28t11.5 -28
t27.5 -12q17 0 29 11.5zM217 725.5q12 11.5 12 28.5t-12 28.5t-29 11.5q-16 0 -27.5 -12t-11.5 -28t11.5 -28t27.5 -12q17 0 29 11.5z" />
    <glyph glyph-name="Yacute" unicode="&#xdd;" horiz-adv-x="560" 
d="M315 245v-245h-69v243l-206 422h76l164 -335l164 335h76zM402 851l-45 -137h-62l39 137h68z" />
    <glyph glyph-name="Thorn" unicode="&#xde;" horiz-adv-x="490" 
d="M343 516q49 -29 78 -78t29 -106t-29 -106t-78 -77.5t-107 -28.5h-117v-120h-69v665h69v-120h117q58 0 107 -29zM308.5 206.5q33.5 19.5 53 53t19.5 72.5t-19.5 72t-53 52.5t-72.5 19.5h-117v-289h117q39 0 72.5 19.5z" />
    <glyph glyph-name="germandbls" unicode="&#xdf;" horiz-adv-x="493" 
d="M197 0h72q50 0 92.5 24.5t67 66.5t24.5 92t-24.5 92.5t-65.5 66.5q31 26 48.5 62.5t17.5 78.5q0 50 -25 92t-67 67t-92 25h-143v-1h-52v-666h68v299h151q48 0 82 -34t34 -82q0 -47 -34 -81t-82 -34h-72v-68zM326 401q-34 -34 -81 -34h-127v231h127q47 0 81 -34t34 -81
q0 -48 -34 -82z" />
    <glyph glyph-name="agrave" unicode="&#xe0;" horiz-adv-x="595" 
d="M545 487v-487h-69v92q-69 -97 -184 -97q-69 0 -127 33.5t-91.5 91.5t-33.5 126q0 69 33.5 127t91.5 91.5t127 33.5q71 0 116.5 -29.5t67.5 -63.5v82h69zM384 87.5q42 24.5 66.5 66.5t24.5 92t-24.5 92.5t-66.5 67t-92 24.5t-92.5 -24.5t-67 -67t-24.5 -92.5t24.5 -92
t67 -66.5t92.5 -24.5t92 24.5zM323 549h-62l-45 137h68z" />
    <glyph glyph-name="aacute" unicode="&#xe1;" horiz-adv-x="595" 
d="M545 487v-487h-69v92q-69 -97 -184 -97q-69 0 -127 33.5t-91.5 91.5t-33.5 126q0 69 33.5 127t91.5 91.5t127 33.5q71 0 116.5 -29.5t67.5 -63.5v82h69zM384 87.5q42 24.5 66.5 66.5t24.5 92t-24.5 92.5t-66.5 67t-92 24.5t-92.5 -24.5t-67 -67t-24.5 -92.5t24.5 -92
t67 -66.5t92.5 -24.5t92 24.5zM420 686l-45 -137h-62l39 137h68z" />
    <glyph glyph-name="acircumflex" unicode="&#xe2;" horiz-adv-x="595" 
d="M545 487v-487h-69v92q-69 -97 -184 -97q-69 0 -127 33.5t-91.5 91.5t-33.5 126q0 69 33.5 127t91.5 91.5t127 33.5q71 0 116.5 -29.5t67.5 -63.5v82h69zM384 87.5q42 24.5 66.5 66.5t24.5 92t-24.5 92.5t-66.5 67t-92 24.5t-92.5 -24.5t-67 -67t-24.5 -92.5t24.5 -92
t67 -66.5t92.5 -24.5t92 24.5zM297 598l-54 -53h-78l133 131l127 -131h-76z" />
    <glyph glyph-name="atilde" unicode="&#xe3;" horiz-adv-x="595" 
d="M545 487v-487h-69v92q-69 -97 -184 -97q-69 0 -127 33.5t-91.5 91.5t-33.5 126q0 69 33.5 127t91.5 91.5t127 33.5q71 0 116.5 -29.5t67.5 -63.5v82h69zM384 87.5q42 24.5 66.5 66.5t24.5 92t-24.5 92.5t-66.5 67t-92 24.5t-92.5 -24.5t-67 -67t-24.5 -92.5t24.5 -92
t67 -66.5t92.5 -24.5t92 24.5zM452 601q-22 -35 -45 -51.5t-50 -16.5q-17 0 -33.5 6t-37.5 17q-18 9 -30 13.5t-24 5.5q-20 0 -39 -33l-4 -9l-45 36q11 20 27 35q26 27 60 27q20 0 37.5 -6t43.5 -19q19 -10 29.5 -13.5t19.5 -2.5q14 1 24.5 12.5t21.5 33.5z" />
    <glyph glyph-name="adieresis" unicode="&#xe4;" horiz-adv-x="595" 
d="M545 487v-487h-69v92q-69 -97 -184 -97q-69 0 -127 33.5t-91.5 91.5t-33.5 126q0 69 33.5 127t91.5 91.5t127 33.5q71 0 116.5 -29.5t67.5 -63.5v82h69zM384 87.5q42 24.5 66.5 66.5t24.5 92t-24.5 92.5t-66.5 67t-92 24.5t-92.5 -24.5t-67 -67t-24.5 -92.5t24.5 -92
t67 -66.5t92.5 -24.5t92 24.5zM391 560.5q12 11.5 12 28.5t-12 28.5t-29 11.5q-16 0 -27.5 -12t-11.5 -28t11.5 -28t27.5 -12q17 0 29 11.5zM213 560.5q12 11.5 12 28.5t-12 28.5t-29 11.5q-16 0 -27.5 -12t-11.5 -28t11.5 -28t27.5 -12q17 0 29 11.5z" />
    <glyph glyph-name="aring" unicode="&#xe5;" horiz-adv-x="595" 
d="M545 487v-487h-69v92q-69 -97 -184 -97q-69 0 -127 33.5t-91.5 91.5t-33.5 126q0 69 33.5 127t91.5 91.5t127 33.5q71 0 116.5 -29.5t67.5 -63.5v82h69zM384 87.5q42 24.5 66.5 66.5t24.5 92t-24.5 92.5t-66.5 67t-92 24.5t-92.5 -24.5t-67 -67t-24.5 -92.5t24.5 -92
t67 -66.5t92.5 -24.5t92 24.5zM255 557q-20 11 -33 30q-15 23 -15 50q0 24 11 43.5t30 31.5q22 15 50 15q22 0 42.5 -10.5t32.5 -29.5q15 -22 15 -50q0 -22 -10.5 -42.5t-29.5 -33.5q-24 -15 -50 -15q-23 0 -43 11zM272 675q-15 -9 -20 -29l-1 -9q0 -13 8 -26
q7 -10 17.5 -15.5t21.5 -5.5q12 0 25 8q10 7 16 17.5t6 21.5q0 12 -8 25q-16 21 -39 21q-15 0 -26 -8z" />
    <glyph glyph-name="ae" unicode="&#xe6;" horiz-adv-x="1020" 
d="M978 213h-430q12 -64 63 -106.5t117 -42.5q49 0 90 23t66 63l59 -34q-34 -55 -91 -88t-124 -33q-53 0 -100.5 21t-82.5 58v-74h-69v92q-69 -97 -184 -97q-69 0 -127 33.5t-91.5 91.5t-33.5 126q0 69 33.5 127t91.5 91.5t127 33.5q71 0 116.5 -29.5t67.5 -63.5v82h69v-66
q35 37 82.5 57.5t100.5 20.5q68 0 126 -34t92 -91.5t34 -126.5q0 -12 -2 -34zM908 278q0 41 -26 76.5t-67.5 56t-86.5 20.5q-44 0 -86 -20.5t-68 -56t-26 -76.5h360zM384 87.5q42 24.5 66.5 66.5t24.5 92t-24.5 92.5t-66.5 67t-92 24.5t-92.5 -24.5t-67 -67t-24.5 -92.5
t24.5 -92t67 -66.5t92.5 -24.5t92 24.5z" />
    <glyph glyph-name="ccedilla" unicode="&#xe7;" horiz-adv-x="524" 
d="M364 78.5q34 14.5 59 40.5l61 -35q-36 -42 -85.5 -65.5t-106.5 -23.5h-16l-6 -15q33 -7 55 -33.5t22 -60.5q0 -40 -28 -68t-68 -28q-37 0 -65 25l35 38q13 -11 30 -11q18 0 31 13t13 31t-13 31.5t-31 13.5q-6 0 -18 -4l-20 47l12 30q-81 23 -133 90t-52 153q0 68 34 126
t92 92t126 34q57 0 106.5 -23.5t85.5 -65.5l-61 -35q-25 26 -59 40.5t-72 14.5q-50 0 -92 -24.5t-67 -66.5t-25 -92t25 -92t67 -66.5t92 -24.5q38 0 72 14.5z" />
    <glyph glyph-name="egrave" unicode="&#xe8;" horiz-adv-x="584" 
d="M112 213q12 -64 63 -106.5t117 -42.5q49 0 90 23t66 63l59 -34q-34 -55 -91 -88t-124 -33q-68 0 -126 34t-92 92t-34 126q0 69 34 126.5t92 91.5t126 34t126 -34t92 -91.5t34 -126.5q0 -12 -2 -34h-430zM206 410.5q-42 -20.5 -68 -56t-26 -76.5h360q0 41 -26 76.5
t-67.5 56t-86.5 20.5q-44 0 -86 -20.5zM317 549h-62l-45 137h68z" />
    <glyph glyph-name="eacute" unicode="&#xe9;" horiz-adv-x="584" 
d="M112 213q12 -64 63 -106.5t117 -42.5q49 0 90 23t66 63l59 -34q-34 -55 -91 -88t-124 -33q-68 0 -126 34t-92 92t-34 126q0 69 34 126.5t92 91.5t126 34t126 -34t92 -91.5t34 -126.5q0 -12 -2 -34h-430zM206 410.5q-42 -20.5 -68 -56t-26 -76.5h360q0 41 -26 76.5
t-67.5 56t-86.5 20.5q-44 0 -86 -20.5zM373 686l-45 -137h-62l39 137h68z" />
    <glyph glyph-name="ecircumflex" unicode="&#xea;" horiz-adv-x="584" 
d="M112 213q12 -64 63 -106.5t117 -42.5q49 0 90 23t66 63l59 -34q-34 -55 -91 -88t-124 -33q-68 0 -126 34t-92 92t-34 126q0 69 34 126.5t92 91.5t126 34t126 -34t92 -91.5t34 -126.5q0 -12 -2 -34h-430zM206 410.5q-42 -20.5 -68 -56t-26 -76.5h360q0 41 -26 76.5
t-67.5 56t-86.5 20.5q-44 0 -86 -20.5zM291 598l-54 -53h-78l133 131l127 -131h-76z" />
    <glyph glyph-name="edieresis" unicode="&#xeb;" horiz-adv-x="584" 
d="M112 213q12 -64 63 -106.5t117 -42.5q49 0 90 23t66 63l59 -34q-34 -55 -91 -88t-124 -33q-68 0 -126 34t-92 92t-34 126q0 69 34 126.5t92 91.5t126 34t126 -34t92 -91.5t34 -126.5q0 -12 -2 -34h-430zM206 410.5q-42 -20.5 -68 -56t-26 -76.5h360q0 41 -26 76.5
t-67.5 56t-86.5 20.5q-44 0 -86 -20.5zM405 560.5q12 11.5 12 28.5t-12 28.5t-29 11.5q-16 0 -27.5 -12t-11.5 -28t11.5 -28t27.5 -12q17 0 29 11.5zM227 560.5q12 11.5 12 28.5t-12 28.5t-29 11.5q-16 0 -27.5 -12t-11.5 -28t11.5 -28t27.5 -12q17 0 29 11.5z" />
    <glyph glyph-name="igrave" unicode="&#xec;" horiz-adv-x="192" 
d="M152 500v-500h-69v500h69zM147 556h-62l-45 137h68z" />
    <glyph glyph-name="iacute" unicode="&#xed;" horiz-adv-x="200" 
d="M109 500v-500h-69v500h69zM150 693l-45 -137h-62l39 137h68z" />
    <glyph glyph-name="icircumflex" unicode="&#xee;" horiz-adv-x="340" 
d="M205 500v-500h-69v500h69zM172 605l-54 -53h-78l133 131l127 -131h-76z" />
    <glyph glyph-name="idieresis" unicode="&#xef;" horiz-adv-x="338" 
d="M204 500v-500h-69v500h69zM286 568.5q12 11.5 12 28.5t-12 28.5t-29 11.5q-16 0 -27.5 -12t-11.5 -28t11.5 -28t27.5 -12q17 0 29 11.5zM108 568.5q12 11.5 12 28.5t-12 28.5t-29 11.5q-16 0 -27.5 -12t-11.5 -28t11.5 -28t27.5 -12q17 0 29 11.5z" />
    <glyph glyph-name="eth" unicode="&#xf0;" horiz-adv-x="484" 
d="M444 198q0 -55 -27 -101t-73.5 -73.5t-101.5 -27.5t-101.5 27.5t-73.5 73.5t-27 101t27 101.5t73.5 74t101.5 27.5q32 0 63 -11l-56 133l-84 -24l-13 46l78 22l-42 98h74l34 -79l81 23l13 -46l-75 -21l112 -261q17 -39 17 -83zM309.5 83q30.5 18 48.5 48.5t18 66.5
q0 37 -18 67.5t-48.5 48.5t-67.5 18q-36 0 -67 -18t-49 -48.5t-18 -67.5q0 -36 18 -66.5t49 -48.5t67 -18q37 0 67.5 18z" />
    <glyph glyph-name="ntilde" unicode="&#xf1;" horiz-adv-x="487" 
d="M347.5 473.5q45.5 -26.5 72.5 -72t27 -99.5v-302h-69v302q0 35 -17.5 64.5t-47.5 47t-65 17.5t-65 -17.5t-47.5 -47t-17.5 -64.5v-302h-68v487h68v-44q25 28 58.5 42.5t71.5 14.5q54 0 99.5 -26.5zM398 601q-22 -35 -45 -51.5t-50 -16.5q-17 0 -33.5 6t-37.5 17
q-18 9 -30 13.5t-24 5.5q-20 0 -39 -33l-4 -9l-45 36q11 20 27 35q26 27 60 27q20 0 37.5 -6t43.5 -19q19 -10 29.5 -13.5t19.5 -2.5q14 1 24.5 12.5t21.5 33.5z" />
    <glyph glyph-name="ograve" unicode="&#xf2;" horiz-adv-x="588" 
d="M166.5 29q-58.5 34 -92.5 92.5t-34 126.5q0 69 34 127.5t92.5 93t126.5 34.5q69 0 127.5 -34.5t93 -93t34.5 -127.5q0 -68 -34.5 -126.5t-93 -92.5t-127.5 -34q-68 0 -126.5 34zM386.5 87q42.5 25 67.5 68t25 93q0 51 -25 94t-67.5 68t-93.5 25q-50 0 -92.5 -25
t-67.5 -68t-25 -94q0 -50 25 -93t67.5 -68t92.5 -25q51 0 93.5 25zM319 549h-62l-45 137h68z" />
    <glyph glyph-name="oacute" unicode="&#xf3;" horiz-adv-x="588" 
d="M166.5 29q-58.5 34 -92.5 92.5t-34 126.5q0 69 34 127.5t92.5 93t126.5 34.5q69 0 127.5 -34.5t93 -93t34.5 -127.5q0 -68 -34.5 -126.5t-93 -92.5t-127.5 -34q-68 0 -126.5 34zM386.5 87q42.5 25 67.5 68t25 93q0 51 -25 94t-67.5 68t-93.5 25q-50 0 -92.5 -25
t-67.5 -68t-25 -94q0 -50 25 -93t67.5 -68t92.5 -25q51 0 93.5 25zM416 686l-45 -137h-62l39 137h68z" />
    <glyph glyph-name="ocircumflex" unicode="&#xf4;" horiz-adv-x="588" 
d="M166.5 29q-58.5 34 -92.5 92.5t-34 126.5q0 69 34 127.5t92.5 93t126.5 34.5q69 0 127.5 -34.5t93 -93t34.5 -127.5q0 -68 -34.5 -126.5t-93 -92.5t-127.5 -34q-68 0 -126.5 34zM386.5 87q42.5 25 67.5 68t25 93q0 51 -25 94t-67.5 68t-93.5 25q-50 0 -92.5 -25
t-67.5 -68t-25 -94q0 -50 25 -93t67.5 -68t92.5 -25q51 0 93.5 25zM293 598l-54 -53h-78l133 131l127 -131h-76z" />
    <glyph glyph-name="otilde" unicode="&#xf5;" horiz-adv-x="588" 
d="M166.5 29q-58.5 34 -92.5 92.5t-34 126.5q0 69 34 127.5t92.5 93t126.5 34.5q69 0 127.5 -34.5t93 -93t34.5 -127.5q0 -68 -34.5 -126.5t-93 -92.5t-127.5 -34q-68 0 -126.5 34zM386.5 87q42.5 25 67.5 68t25 93q0 51 -25 94t-67.5 68t-93.5 25q-50 0 -92.5 -25
t-67.5 -68t-25 -94q0 -50 25 -93t67.5 -68t92.5 -25q51 0 93.5 25zM448 601q-22 -35 -45 -51.5t-50 -16.5q-17 0 -33.5 6t-37.5 17q-18 9 -30 13.5t-24 5.5q-20 0 -39 -33l-4 -9l-45 36q11 20 27 35q26 27 60 27q20 0 37.5 -6t43.5 -19q19 -10 29.5 -13.5t19.5 -2.5
q14 1 24.5 12.5t21.5 33.5z" />
    <glyph glyph-name="odieresis" unicode="&#xf6;" horiz-adv-x="588" 
d="M166.5 29q-58.5 34 -92.5 92.5t-34 126.5q0 69 34 127.5t92.5 93t126.5 34.5q69 0 127.5 -34.5t93 -93t34.5 -127.5q0 -68 -34.5 -126.5t-93 -92.5t-127.5 -34q-68 0 -126.5 34zM386.5 87q42.5 25 67.5 68t25 93q0 51 -25 94t-67.5 68t-93.5 25q-50 0 -92.5 -25
t-67.5 -68t-25 -94q0 -50 25 -93t67.5 -68t92.5 -25q51 0 93.5 25zM407 560.5q12 11.5 12 28.5t-12 28.5t-29 11.5q-16 0 -27.5 -12t-11.5 -28t11.5 -28t27.5 -12q17 0 29 11.5zM229 560.5q12 11.5 12 28.5t-12 28.5t-29 11.5q-16 0 -27.5 -12t-11.5 -28t11.5 -28t27.5 -12
q17 0 29 11.5z" />
    <glyph glyph-name="divide" unicode="&#xf7;" horiz-adv-x="549" 
d="M243 387q-13 13 -13 31q0 19 13 32t31 13q19 0 32 -13t13 -32q0 -18 -13 -31t-32 -13q-18 0 -31 13zM509 315h-469v-68h469v68zM306 112q13 13 13 32q0 18 -13 31t-32 13q-18 0 -31 -13t-13 -31q0 -19 13 -32t31 -13q19 0 32 13z" />
    <glyph glyph-name="oslash" unicode="&#xf8;" horiz-adv-x="588" 
d="M519.5 365.5q28.5 -54.5 28.5 -117.5q0 -68 -34.5 -126.5t-93 -92.5t-127.5 -34q-44 0 -89 16l-51 -94h-77l68 127q-48 35 -76 88.5t-28 115.5q0 69 34 127.5t92.5 93t126.5 34.5q46 0 89 -16l52 96h77l-69 -128q49 -35 77.5 -89.5zM126.5 167.5q18.5 -37.5 50.5 -63.5
l173 322q-27 9 -57 9q-50 0 -92.5 -25t-67.5 -68t-25 -94q0 -43 18.5 -80.5zM386.5 87q42.5 25 67.5 68t25 93q0 44 -18.5 82t-51.5 64l-173 -323q27 -9 57 -9q51 0 93.5 25z" />
    <glyph glyph-name="ugrave" unicode="&#xf9;" horiz-adv-x="487" 
d="M139.5 22.5q-45.5 26.5 -72.5 72t-27 99.5v306h69v-306q0 -35 17.5 -65t47.5 -47.5t65 -17.5t65 17.5t47.5 47.5t17.5 65v306h68v-495h-68v48q-25 -28 -58.5 -42.5t-71.5 -14.5q-54 0 -99.5 26.5zM269 549h-62l-45 137h68z" />
    <glyph glyph-name="uacute" unicode="&#xfa;" horiz-adv-x="487" 
d="M139.5 22.5q-45.5 26.5 -72.5 72t-27 99.5v306h69v-306q0 -35 17.5 -65t47.5 -47.5t65 -17.5t65 17.5t47.5 47.5t17.5 65v306h68v-495h-68v48q-25 -28 -58.5 -42.5t-71.5 -14.5q-54 0 -99.5 26.5zM324 686l-45 -137h-62l39 137h68z" />
    <glyph glyph-name="ucircumflex" unicode="&#xfb;" horiz-adv-x="487" 
d="M139.5 22.5q-45.5 26.5 -72.5 72t-27 99.5v306h69v-306q0 -35 17.5 -65t47.5 -47.5t65 -17.5t65 17.5t47.5 47.5t17.5 65v306h68v-495h-68v48q-25 -28 -58.5 -42.5t-71.5 -14.5q-54 0 -99.5 26.5zM243 598l-54 -53h-78l133 131l127 -131h-76z" />
    <glyph glyph-name="udieresis" unicode="&#xfc;" horiz-adv-x="487" 
d="M139.5 22.5q-45.5 26.5 -72.5 72t-27 99.5v306h69v-306q0 -35 17.5 -65t47.5 -47.5t65 -17.5t65 17.5t47.5 47.5t17.5 65v306h68v-495h-68v48q-25 -28 -58.5 -42.5t-71.5 -14.5q-54 0 -99.5 26.5zM357 560.5q12 11.5 12 28.5t-12 28.5t-29 11.5q-16 0 -27.5 -12
t-11.5 -28t11.5 -28t27.5 -12q17 0 29 11.5zM179 560.5q12 11.5 12 28.5t-12 28.5t-29 11.5q-16 0 -27.5 -12t-11.5 -28t11.5 -28t27.5 -12q17 0 29 11.5z" />
    <glyph glyph-name="yacute" unicode="&#xfd;" horiz-adv-x="524" 
d="M474 500v-496q0 -59 -29 -109t-79 -79t-109 -29q-57 0 -105 27t-78 73l60 34q20 -30 52.5 -48t70.5 -18q40 0 74.5 20t54.5 54.5t20 74.5v53q-30 -28 -68 -43.5t-81 -15.5q-58 0 -107.5 28.5t-79 76.5t-30.5 106v291h68v-285q0 -40 20 -74.5t54.5 -54.5t74.5 -20t74.5 20
t54.5 54.5t20 74.5v285h68zM384 686l-45 -137h-62l39 137h68z" />
    <glyph glyph-name="thorn" unicode="&#xfe;" horiz-adv-x="595" 
d="M50 -173v838h68v-261q35 49 82 73.5t103 24.5q68 0 126 -34t92 -92t34 -126t-34 -126t-92 -92t-126 -34q-71 0 -117 29.5t-68 63.5v-264h-68zM211 408.5q-42 -24.5 -67 -66.5t-25 -92t25 -92t67 -67t92 -25t92 25t66.5 67t24.5 92t-24.5 92t-66.5 66.5t-92 24.5
t-92 -24.5z" />
    <glyph glyph-name="ydieresis" unicode="&#xff;" horiz-adv-x="524" 
d="M474 500v-496q0 -59 -29 -109t-79 -79t-109 -29q-57 0 -105 27t-78 73l60 34q20 -30 52.5 -48t70.5 -18q40 0 74.5 20t54.5 54.5t20 74.5v53q-30 -28 -68 -43.5t-81 -15.5q-58 0 -107.5 28.5t-79 76.5t-30.5 106v291h68v-285q0 -40 20 -74.5t54.5 -54.5t74.5 -20t74.5 20
t54.5 54.5t20 74.5v285h68zM375 560.5q12 11.5 12 28.5t-12 28.5t-29 11.5q-16 0 -27.5 -12t-11.5 -28t11.5 -28t27.5 -12q17 0 29 11.5zM197 560.5q12 11.5 12 28.5t-12 28.5t-29 11.5q-16 0 -27.5 -12t-11.5 -28t11.5 -28t27.5 -12q17 0 29 11.5z" />
    <glyph glyph-name="Amacron" unicode="&#x100;" horiz-adv-x="632" 
d="M433 245h-234l-86 -245h-73l233 664h86l233 -664h-73zM411 309l-95 272l-95 -272h190zM175 735v50h281v-50h-281z" />
    <glyph glyph-name="amacron" unicode="&#x101;" horiz-adv-x="595" 
d="M545 487v-487h-69v92q-69 -97 -184 -97q-69 0 -127 33.5t-91.5 91.5t-33.5 126q0 69 33.5 127t91.5 91.5t127 33.5q71 0 116.5 -29.5t67.5 -63.5v82h69zM384 87.5q42 24.5 66.5 66.5t24.5 92t-24.5 92.5t-66.5 67t-92 24.5t-92.5 -24.5t-67 -67t-24.5 -92.5t24.5 -92
t67 -66.5t92.5 -24.5t92 24.5zM157 570v50h281v-50h-281z" />
    <glyph glyph-name="Abreve" unicode="&#x102;" horiz-adv-x="632" 
d="M433 245h-234l-86 -245h-73l233 664h86l233 -664h-73zM411 309l-95 272l-95 -272h190zM451 847q-2 -31 -18 -57.5t-43 -44.5q-35 -23 -74 -23q-34 0 -64.5 16t-49.5 45t-22 64h55q4 -19 13 -33q12 -18 29.5 -27.5t37.5 -9.5q23 0 45 14q15 10 24.5 24.5t11.5 31.5h55z
" />
    <glyph glyph-name="abreve" unicode="&#x103;" horiz-adv-x="595" 
d="M545 487v-487h-69v92q-69 -97 -184 -97q-69 0 -127 33.5t-91.5 91.5t-33.5 126q0 69 33.5 127t91.5 91.5t127 33.5q71 0 116.5 -29.5t67.5 -63.5v82h69zM384 87.5q42 24.5 66.5 66.5t24.5 92t-24.5 92.5t-66.5 67t-92 24.5t-92.5 -24.5t-67 -67t-24.5 -92.5t24.5 -92
t67 -66.5t92.5 -24.5t92 24.5zM433 682q-2 -31 -18 -57.5t-43 -44.5q-35 -23 -74 -23q-34 0 -64.5 16t-49.5 45t-22 64h55q4 -19 13 -33q12 -18 29.5 -27.5t37.5 -9.5q23 0 45 14q15 10 24.5 24.5t11.5 31.5h55z" />
    <glyph glyph-name="Aogonek" unicode="&#x104;" horiz-adv-x="632" 
d="M651 -178q-29 -34 -74 -36h-9q-15 0 -23 2q-33 8 -54.5 36t-21.5 62q0 35 18.5 60.5t49.5 36.5l1 17h-19l-86 245h-234l-86 -245h-73l233 664h86l233 -664h-1l-1 -66l-13 1q-8 0 -11 -1q-18 -1 -30.5 -15t-12.5 -32q0 -16 9.5 -28.5t25.5 -16.5l12 -1q24 0 41 18z
M411 309l-95 272l-95 -272h190z" />
    <glyph glyph-name="aogonek" unicode="&#x105;" horiz-adv-x="595" 
d="M605 -172q-29 -34 -74 -36h-9q-15 0 -23 2q-33 8 -54.5 36t-21.5 62q0 35 18.5 60.5t49.5 36.5l1 11h-16v92q-69 -97 -184 -97q-69 0 -127 33.5t-91.5 91.5t-33.5 126q0 69 33.5 127t91.5 91.5t127 33.5q71 0 116.5 -29.5t67.5 -63.5v82h69v-487l-1 -60l-13 1
q-8 0 -11 -1q-18 -1 -30.5 -15t-12.5 -32q0 -16 9.5 -28.5t25.5 -16.5l12 -1q24 0 41 18zM384 87.5q42 24.5 66.5 66.5t24.5 92t-24.5 92.5t-66.5 67t-92 24.5t-92.5 -24.5t-67 -67t-24.5 -92.5t24.5 -92t67 -66.5t92.5 -24.5t92 24.5z" />
    <glyph glyph-name="Cacute" unicode="&#x106;" horiz-adv-x="671" 
d="M207 39q-77 45 -122 122t-45 169t45 169.5t122.5 123t168.5 45.5q74 0 141 -30.5t114 -87.5l-52 -44q-38 44 -91.5 68.5t-111.5 24.5q-72 0 -133.5 -36.5t-97.5 -98.5t-36 -134t36 -133.5t97.5 -97.5t133.5 -36q58 0 111.5 24.5t91.5 68.5l52 -44q-47 -56 -114 -87
t-141 -31q-92 0 -169 45zM462 851l-45 -137h-62l39 137h68z" />
    <glyph glyph-name="cacute" unicode="&#x107;" horiz-adv-x="524" 
d="M484 84q-36 -42 -85.5 -65.5t-106.5 -23.5q-68 0 -126 34t-92 92t-34 126t34 126t92 92t126 34q57 0 106.5 -23.5t85.5 -65.5l-61 -35q-25 26 -59 40.5t-72 14.5q-50 0 -92 -24.5t-67 -66.5t-25 -92t25 -92t67 -66.5t92 -24.5q38 0 72 14.5t59 40.5zM384 686l-45 -137
h-62l39 137h68z" />
    <glyph glyph-name="Ccaron" unicode="&#x10c;" horiz-adv-x="671" 
d="M207 39q-77 45 -122 122t-45 169t45 169.5t122.5 123t168.5 45.5q74 0 141 -30.5t114 -87.5l-52 -44q-38 44 -91.5 68.5t-111.5 24.5q-72 0 -133.5 -36.5t-97.5 -98.5t-36 -134t36 -133.5t97.5 -97.5t133.5 -36q58 0 111.5 24.5t91.5 68.5l52 -44q-47 -56 -114 -87
t-141 -31q-92 0 -169 45zM468 841l-127 -131l-133 131h78l54 -53l52 53h76z" />
    <glyph glyph-name="ccaron" unicode="&#x10d;" horiz-adv-x="524" 
d="M484 84q-36 -42 -85.5 -65.5t-106.5 -23.5q-68 0 -126 34t-92 92t-34 126t34 126t92 92t126 34q57 0 106.5 -23.5t85.5 -65.5l-61 -35q-25 26 -59 40.5t-72 14.5q-50 0 -92 -24.5t-67 -66.5t-25 -92t25 -92t67 -66.5t92 -24.5q38 0 72 14.5t59 40.5zM390 676l-127 -131
l-133 131h78l54 -53l52 53h76z" />
    <glyph glyph-name="Dcaron" unicode="&#x10e;" horiz-adv-x="591" 
d="M50 0v666h168q91 0 167 -45t121 -121t45 -167t-45 -167t-121 -121t-167 -45h-168zM218 68q72 0 133 35.5t96.5 96.5t35.5 133t-35.5 133t-96.5 96.5t-133 35.5h-99v-530h99zM424 841l-127 -131l-133 131h78l54 -53l52 53h76z" />
    <glyph glyph-name="dcaron" unicode="&#x10f;" horiz-adv-x="597" 
d="M547 0h-67v93q-73 -98 -187 -98q-69 0 -127 34t-92 92.5t-34 126.5t34 126.5t92 92.5t127 34q118 0 187 -93v256h67v-664zM453 340q-25 42 -67.5 67t-92.5 25t-92 -25t-67 -67t-25 -92t25 -92.5t67 -67.5t92 -25t92.5 25t67.5 67.5t25 92.5t-25 92zM427 841l-127 -131
l-133 131h78l54 -53l52 53h76z" />
    <glyph glyph-name="Dcroat" unicode="&#x110;" horiz-adv-x="637" 
d="M431 621q76 -45 121 -121t45 -167t-45 -167t-121 -121t-167 -45h-168v310h-56v66h56v290h168q91 0 167 -45zM397 103.5q61 35.5 96.5 96.5t35.5 133t-35.5 133t-96.5 96.5t-133 35.5h-99v-222h258v-66h-258v-242h99q72 0 133 35.5z" />
    <glyph glyph-name="dcroat" unicode="&#x111;" horiz-adv-x="638" 
d="M547 664v-664h-67v93q-73 -98 -187 -98q-69 0 -127 34t-92 92.5t-34 126.5t34 126.5t92 92.5t127 34q118 0 187 -93v159h-410v50h410v47h67zM385.5 88q42.5 25 67.5 67.5t25 92.5t-25 92t-67.5 67t-92.5 25t-92 -25t-67 -67t-25 -92t25 -92.5t67 -67.5t92 -25t92.5 25z
" />
    <glyph glyph-name="Emacron" unicode="&#x112;" horiz-adv-x="464" 
d="M118 597v-233h199v-64h-199v-232h296v-68h-364v665h364v-68h-296zM86 735v50h281v-50h-281z" />
    <glyph glyph-name="emacron" unicode="&#x113;" horiz-adv-x="584" 
d="M112 213q12 -64 63 -106.5t117 -42.5q49 0 90 23t66 63l59 -34q-34 -55 -91 -88t-124 -33q-68 0 -126 34t-92 92t-34 126q0 69 34 126.5t92 91.5t126 34t126 -34t92 -91.5t34 -126.5q0 -12 -2 -34h-430zM206 410.5q-42 -20.5 -68 -56t-26 -76.5h360q0 41 -26 76.5
t-67.5 56t-86.5 20.5q-44 0 -86 -20.5zM151 570v50h281v-50h-281z" />
    <glyph glyph-name="Edotaccent" unicode="&#x116;" horiz-adv-x="464" 
d="M118 597v-233h199v-64h-199v-232h296v-68h-364v665h364v-68h-296zM251 745.5q12 11.5 12 28.5t-12 28.5t-29 11.5q-16 0 -27.5 -12t-11.5 -28t11.5 -28t27.5 -12q17 0 29 11.5z" />
    <glyph glyph-name="edotaccent" unicode="&#x117;" horiz-adv-x="584" 
d="M112 213q12 -64 63 -106.5t117 -42.5q49 0 90 23t66 63l59 -34q-34 -55 -91 -88t-124 -33q-68 0 -126 34t-92 92t-34 126q0 69 34 126.5t92 91.5t126 34t126 -34t92 -91.5t34 -126.5q0 -12 -2 -34h-430zM206 410.5q-42 -20.5 -68 -56t-26 -76.5h360q0 41 -26 76.5
t-67.5 56t-86.5 20.5q-44 0 -86 -20.5zM316 580.5q12 11.5 12 28.5t-12 28.5t-29 11.5q-16 0 -27.5 -12t-11.5 -28t11.5 -28t27.5 -12q17 0 29 11.5z" />
    <glyph glyph-name="Eogonek" unicode="&#x118;" horiz-adv-x="464" 
d="M474 -172q-29 -34 -74 -36h-9q-15 0 -23 2q-33 8 -54.5 36t-21.5 62q0 35 18.5 60.5t49.5 36.5l1 11h-311v665h364v-68h-296v-233h199v-64h-199v-232h296v-68l-1 -60l-13 1q-8 0 -11 -1q-18 -1 -30.5 -15t-12.5 -32q0 -16 9.5 -28.5t25.5 -16.5l12 -1q24 0 41 18z" />
    <glyph glyph-name="eogonek" unicode="&#x119;" horiz-adv-x="584" 
d="M542 213h-430q12 -64 63 -106.5t117 -42.5q49 0 90 23t66 63l59 -34q-30 -50 -80.5 -82t-110.5 -38l-1 -58l-13 1q-8 0 -11 -1q-18 -1 -30.5 -15t-12.5 -32q0 -16 9.5 -28.5t25.5 -16.5l12 -1q24 0 41 18l40 -37q-29 -34 -74 -36h-9q-15 0 -23 2q-33 8 -54.5 36t-21.5 62
q0 35 18.5 60.5t49.5 36.5l1 10q-62 7 -113 42t-80.5 90t-29.5 118q0 69 34 126.5t92 91.5t126 34t126 -34t92 -91.5t34 -126.5q0 -12 -2 -34zM472 278q0 41 -26 76.5t-67.5 56t-86.5 20.5q-44 0 -86 -20.5t-68 -56t-26 -76.5h360z" />
    <glyph glyph-name="Ecaron" unicode="&#x11a;" horiz-adv-x="464" 
d="M118 597v-233h199v-64h-199v-232h296v-68h-364v665h364v-68h-296zM355 841l-127 -131l-133 131h78l54 -53l52 53h76z" />
    <glyph glyph-name="ecaron" unicode="&#x11b;" horiz-adv-x="584" 
d="M112 213q12 -64 63 -106.5t117 -42.5q49 0 90 23t66 63l59 -34q-34 -55 -91 -88t-124 -33q-68 0 -126 34t-92 92t-34 126q0 69 34 126.5t92 91.5t126 34t126 -34t92 -91.5t34 -126.5q0 -12 -2 -34h-430zM206 410.5q-42 -20.5 -68 -56t-26 -76.5h360q0 41 -26 76.5
t-67.5 56t-86.5 20.5q-44 0 -86 -20.5zM420 676l-127 -131l-133 131h78l54 -53l52 53h76z" />
    <glyph glyph-name="uni0122" unicode="&#x122;" horiz-adv-x="693" 
d="M643 313v-180q-29 -40 -67 -69q-18 -14 -46 -29q-75 -39 -156 -39q-91 0 -171 47t-124 130q-22 44 -30 82q-9 38 -9 76q0 76 33 142q22 46 57.5 84t80.5 64q75 42 164 42q23 0 46 -3q59 -8 112.5 -37.5t93.5 -76.5l-52 -44q-45 52 -105 74q-46 18 -97 18q-68 0 -124 -30
q-36 -20 -65 -50t-47 -67q-28 -55 -28 -118q0 -34 9 -69q23 -84 94 -140q35 -26 76.5 -40.5t84.5 -14.5q58 0 111 24.5t91 68.5l1 87h-97v68h164zM350 -188h-62l41 152h66z" />
    <glyph glyph-name="uni0123" unicode="&#x123;" horiz-adv-x="594" 
d="M544 487v-449q0 -68 -34 -126t-92 -91.5t-126 -33.5q-59 0 -110.5 25t-86.5 69l61 36q25 -29 60.5 -45.5t75.5 -16.5q50 0 92 24.5t66.5 66.5t24.5 92v56q-69 -97 -184 -97q-67 0 -125 36t-92 95.5t-34 126.5t34 123t91.5 89t125.5 33q70 0 116 -29.5t68 -63.5v80h69z
M383 89.5q42 24.5 66.5 66.5t24.5 92t-24.5 92t-66.5 66.5t-92 24.5t-92 -24.5t-67 -66.5t-25 -92t25 -92t67 -66.5t92 -24.5t92 24.5zM299 704h62l-38 -135h-69z" />
    <glyph glyph-name="Imacron" unicode="&#x12a;" horiz-adv-x="361" 
d="M215 665v-665h-68v665h68zM40 735v50h281v-50h-281z" />
    <glyph glyph-name="imacron" unicode="&#x12b;" horiz-adv-x="361" 
d="M215 500v-500h-69v500h69zM40 577v50h281v-50h-281z" />
    <glyph glyph-name="Iogonek" unicode="&#x12e;" horiz-adv-x="272" 
d="M222 -172q-29 -34 -74 -36h-9q-15 0 -23 2q-33 8 -54.5 36t-21.5 62q0 35 18.5 60.5t49.5 36.5l1 11h-14v665h68v-665h-1l-1 -60l-13 1q-8 0 -11 -1q-18 -1 -30.5 -15t-12.5 -32q0 -16 9.5 -28.5t25.5 -16.5l12 -1q24 0 41 18z" />
    <glyph glyph-name="iogonek" unicode="&#x12f;" horiz-adv-x="262" 
d="M105.5 588q-11.5 12 -11.5 28t11.5 28t27.5 12q17 0 29 -11.5t12 -28.5t-12 -28.5t-29 -11.5q-16 0 -27.5 12zM222 -172q-29 -34 -74 -36h-9q-15 0 -23 2q-33 8 -54.5 36t-21.5 62q0 35 18.5 60.5t49.5 36.5l1 11h-10v500h69v-500h-6l-1 -60l-13 1q-8 0 -11 -1
q-18 -1 -30.5 -15t-12.5 -32q0 -16 9.5 -28.5t25.5 -16.5l12 -1q24 0 41 18z" />
    <glyph glyph-name="dotlessi" unicode="&#x131;" horiz-adv-x="189" 
d="M129 500v-500h-69v500h69z" />
    <glyph glyph-name="uni0136" unicode="&#x136;" horiz-adv-x="493" 
d="M114 274v-274h-64v664h64v-284l243 284h90l-288 -337l294 -327h-92zM241 -188h-62l41 152h66z" />
    <glyph glyph-name="uni0137" unicode="&#x137;" horiz-adv-x="432" 
d="M301 0l-182 213v-213h-69v670h69v-318l164 148h103l-239 -215l245 -285h-91zM212 -188h-62l41 152h66z" />
    <glyph glyph-name="Lacute" unicode="&#x139;" horiz-adv-x="376" 
d="M336 68v-68h-286v665h69v-597h217zM166 851l-45 -137h-62l39 137h68z" />
    <glyph glyph-name="lacute" unicode="&#x13a;" horiz-adv-x="213" 
d="M118 665v-665h-68v665h68zM163 843l-45 -137h-62l39 137h68z" />
    <glyph glyph-name="uni013B" unicode="&#x13b;" horiz-adv-x="376" 
d="M336 68v-68h-286v665h69v-597h217zM184 -188h-62l41 152h66z" />
    <glyph glyph-name="uni013C" unicode="&#x13c;" horiz-adv-x="168" 
d="M118 665v-665h-68v665h68zM75 -216h-62l41 152h66z" />
    <glyph glyph-name="Lcaron" unicode="&#x13d;" horiz-adv-x="376" 
d="M336 68v-68h-286v665h69v-597h217zM294 664l-45 -137h-62l39 137h68z" />
    <glyph glyph-name="lcaron" unicode="&#x13e;" horiz-adv-x="340" 
d="M206 665v-665h-68v665h68zM300 833l-127 -131l-133 131h78l54 -53l52 53h76z" />
    <glyph glyph-name="Lslash" unicode="&#x141;" horiz-adv-x="512" 
d="M472 68v-68h-286v202l-79 -147h-77l156 290v320h69v-192l74 138h77l-151 -281v-262h217z" />
    <glyph glyph-name="lslash" unicode="&#x142;" horiz-adv-x="456" 
d="M262 331v-331h-68v204l-77 -143h-77l154 286v318h68v-191l77 143h77z" />
    <glyph glyph-name="Nacute" unicode="&#x143;" horiz-adv-x="585" 
d="M535 665v-665h-81l-335 537v-537h-69v665h72l345 -552v552h68zM415 851l-45 -137h-62l39 137h68z" />
    <glyph glyph-name="nacute" unicode="&#x144;" horiz-adv-x="487" 
d="M347.5 473.5q45.5 -26.5 72.5 -72t27 -99.5v-302h-69v302q0 35 -17.5 64.5t-47.5 47t-65 17.5t-65 -17.5t-47.5 -47t-17.5 -64.5v-302h-68v487h68v-44q25 28 58.5 42.5t71.5 14.5q54 0 99.5 -26.5zM347 686l-45 -137h-62l39 137h68z" />
    <glyph glyph-name="uni0145" unicode="&#x145;" horiz-adv-x="585" 
d="M535 665v-665h-81l-335 537v-537h-69v665h72l345 -552v552h68zM289 -188h-62l41 152h66z" />
    <glyph glyph-name="uni0146" unicode="&#x146;" horiz-adv-x="487" 
d="M347.5 473.5q45.5 -26.5 72.5 -72t27 -99.5v-302h-69v302q0 35 -17.5 64.5t-47.5 47t-65 17.5t-65 -17.5t-47.5 -47t-17.5 -64.5v-302h-68v487h68v-44q25 28 58.5 42.5t71.5 14.5q54 0 99.5 -26.5zM240 -188h-62l41 152h66z" />
    <glyph glyph-name="Ncaron" unicode="&#x147;" horiz-adv-x="585" 
d="M535 665v-665h-81l-335 537v-537h-69v665h72l345 -552v552h68zM421 841l-127 -131l-133 131h78l54 -53l52 53h76z" />
    <glyph glyph-name="ncaron" unicode="&#x148;" horiz-adv-x="487" 
d="M347.5 473.5q45.5 -26.5 72.5 -72t27 -99.5v-302h-69v302q0 35 -17.5 64.5t-47.5 47t-65 17.5t-65 -17.5t-47.5 -47t-17.5 -64.5v-302h-68v487h68v-44q25 28 58.5 42.5t71.5 14.5q54 0 99.5 -26.5zM372 676l-127 -131l-133 131h78l54 -53l52 53h76z" />
    <glyph glyph-name="Omacron" unicode="&#x14c;" horiz-adv-x="747" 
d="M206 40q-76 45 -121 121t-45 167t45 167.5t121.5 121.5t166.5 45t167 -45t122 -122t45 -167t-45 -166.5t-121.5 -121.5t-167.5 -45t-167 45zM506 98.5q61 35.5 96.5 96.5t35.5 133t-35.5 133t-96.5 96.5t-133 35.5t-133 -35.5t-96.5 -96.5t-35.5 -133t35.5 -133
t96.5 -96.5t133 -35.5t133 35.5zM233 735v50h281v-50h-281z" />
    <glyph glyph-name="omacron" unicode="&#x14d;" horiz-adv-x="588" 
d="M166.5 29q-58.5 34 -92.5 92.5t-34 126.5q0 69 34 127.5t92.5 93t126.5 34.5q69 0 127.5 -34.5t93 -93t34.5 -127.5q0 -68 -34.5 -126.5t-93 -92.5t-127.5 -34q-68 0 -126.5 34zM386.5 87q42.5 25 67.5 68t25 93q0 51 -25 94t-67.5 68t-93.5 25q-50 0 -92.5 -25
t-67.5 -68t-25 -94q0 -50 25 -93t67.5 -68t92.5 -25q51 0 93.5 25zM153 570v50h281v-50h-281z" />
    <glyph glyph-name="Ohungarumlaut" unicode="&#x150;" horiz-adv-x="747" 
d="M206 40q-76 45 -121 121t-45 167t45 167.5t121.5 121.5t166.5 45t167 -45t122 -122t45 -167t-45 -166.5t-121.5 -121.5t-167.5 -45t-167 45zM506 98.5q61 35.5 96.5 96.5t35.5 133t-35.5 133t-96.5 96.5t-133 35.5t-133 -35.5t-96.5 -96.5t-35.5 -133t35.5 -133
t96.5 -96.5t133 -35.5t133 35.5zM388 850l-45 -137h-62l39 137h68zM501 850l-45 -137h-62l39 137h68z" />
    <glyph glyph-name="ohungarumlaut" unicode="&#x151;" horiz-adv-x="588" 
d="M166.5 29q-58.5 34 -92.5 92.5t-34 126.5q0 69 34 127.5t92.5 93t126.5 34.5q69 0 127.5 -34.5t93 -93t34.5 -127.5q0 -68 -34.5 -126.5t-93 -92.5t-127.5 -34q-68 0 -126.5 34zM386.5 87q42.5 25 67.5 68t25 93q0 51 -25 94t-67.5 68t-93.5 25q-50 0 -92.5 -25
t-67.5 -68t-25 -94q0 -50 25 -93t67.5 -68t92.5 -25q51 0 93.5 25zM308 685l-45 -137h-62l39 137h68zM421 685l-45 -137h-62l39 137h68z" />
    <glyph glyph-name="OE" unicode="&#x152;" horiz-adv-x="1043" 
d="M707 597v-233h199v-64h-199v-232h296v-68h-364v127q-47 -61 -116.5 -96.5t-149.5 -35.5q-91 0 -167 45t-121 121t-45 167t45 167.5t121.5 121.5t166.5 45q80 0 149.5 -35.5t116.5 -96.5v135h364v-68h-296zM506 98.5q61 35.5 96.5 96.5t35.5 133t-35.5 133t-96.5 96.5
t-133 35.5t-133 -35.5t-96.5 -96.5t-35.5 -133t35.5 -133t96.5 -96.5t133 -35.5t133 35.5z" />
    <glyph glyph-name="oe" unicode="&#x153;" horiz-adv-x="1024" 
d="M982 213h-430q12 -64 63 -106.5t117 -42.5q49 0 90 23t66 63l59 -34q-34 -55 -91 -88t-124 -33q-69 0 -127 34.5t-91 91.5q-34 -57 -93 -91.5t-128 -34.5q-68 0 -126.5 34t-92.5 92.5t-34 126.5q0 69 34 127.5t92.5 93t126.5 34.5q70 0 129 -35t92 -93q34 57 91.5 90.5
t126.5 33.5q68 0 126 -34t92 -91.5t34 -126.5q0 -12 -2 -34zM386.5 87q42.5 25 67.5 68t25 93q0 51 -25 94t-67.5 68t-93.5 25q-50 0 -92.5 -25t-67.5 -68t-25 -94q0 -50 25 -93t67.5 -68t92.5 -25q51 0 93.5 25zM912 278q0 41 -26 76.5t-67.5 56t-86.5 20.5
q-44 0 -86 -20.5t-68 -56t-26 -76.5h360z" />
    <glyph glyph-name="Racute" unicode="&#x154;" horiz-adv-x="472" 
d="M217 239l215 -239h-92l-215 239h-6v-239h-69v664h170q58 0 106.5 -28.5t77 -77.5t28.5 -107t-28.5 -106.5t-77 -77t-106.5 -28.5h-3zM119 596v-289h101q39 0 72 19.5t52.5 52.5t19.5 72t-19.5 72.5t-52.5 53t-72 19.5h-101zM309 851l-45 -137h-62l39 137h68z" />
    <glyph glyph-name="racute" unicode="&#x155;" horiz-adv-x="387" 
d="M233 436q-47 0 -81 -34t-34 -81v-321h-68v321q0 54 28.5 98.5t74.5 66.5l2 1q37 17 78 17q64 0 114 -39l-68 -39q-23 10 -46 10zM273 686l-45 -137h-62l39 137h68z" />
    <glyph glyph-name="uni0156" unicode="&#x156;" horiz-adv-x="472" 
d="M217 239l215 -239h-92l-215 239h-6v-239h-69v664h170q58 0 106.5 -28.5t77 -77.5t28.5 -107t-28.5 -106.5t-77 -77t-106.5 -28.5h-3zM119 596v-289h101q39 0 72 19.5t52.5 52.5t19.5 72t-19.5 72.5t-52.5 53t-72 19.5h-101zM232 -188h-62l41 152h66z" />
    <glyph glyph-name="uni0157" unicode="&#x157;" horiz-adv-x="387" 
d="M233 436q-47 0 -81 -34t-34 -81v-321h-68v321q0 54 28.5 98.5t74.5 66.5l2 1q37 17 78 17q64 0 114 -39l-68 -39q-23 10 -46 10zM72 -188h-62l41 152h66z" />
    <glyph glyph-name="Rcaron" unicode="&#x158;" horiz-adv-x="472" 
d="M217 239l215 -239h-92l-215 239h-6v-239h-69v664h170q58 0 106.5 -28.5t77 -77.5t28.5 -107t-28.5 -106.5t-77 -77t-106.5 -28.5h-3zM119 596v-289h101q39 0 72 19.5t52.5 52.5t19.5 72t-19.5 72.5t-52.5 53t-72 19.5h-101zM364 841l-127 -131l-133 131h78l54 -53l52 53
h76z" />
    <glyph glyph-name="rcaron" unicode="&#x159;" horiz-adv-x="387" 
d="M233 436q-47 0 -81 -34t-34 -81v-321h-68v321q0 54 28.5 98.5t74.5 66.5l2 1q37 17 78 17q64 0 114 -39l-68 -39q-23 10 -46 10zM322 676l-127 -131l-133 131h78l54 -53l52 53h76z" />
    <glyph glyph-name="Sacute" unicode="&#x15a;" horiz-adv-x="536" 
d="M424 472q-5 38 -24 66q-39 60 -129 60q-75 0 -109 -34q-31 -32 -31 -87q0 -61 34 -84t95 -28q58 -5 98 -15.5t67 -28.5q71 -44 71 -138q0 -37 -14.5 -70t-41.5 -59q-61 -60 -167 -60q-107 0 -169 59q-53 49 -64 132h69q9 -50 42 -82q43 -40 123 -40q68 0 110.5 33.5
t42.5 86.5q0 34 -13.5 56.5t-51.5 36.5t-108 20q-192 17 -192 181q0 41 13.5 75.5t38.5 59.5q55 55 156 55h1q103 -1 157.5 -56.5t64.5 -139.5h-69v1zM390 851l-45 -137h-62l39 137h68z" />
    <glyph glyph-name="sacute" unicode="&#x15b;" horiz-adv-x="431" 
d="M135 90q28 -26 82 -26q47 0 76 22t29 57q0 33 -13 49t-33.5 20.5t-56.5 5.5q-52 3 -85 11.5t-60 38.5q-33 41 -33 90q0 12 1 18q8 63 53 96.5t121 33.5h1q56 0 91 -21t54 -51q20 -33 25 -69h-70q-2 14 -13 33q-25 38 -87 40q-63 0 -83 -21t-24 -49q-1 -4 -1 -11
q0 -24 17 -43q14 -17 36 -22.5t63 -8.5q33 -2 56.5 -6t44.5 -15q65 -35 65 -119q0 -29 -11.5 -55.5t-32.5 -46.5q-47 -46 -129 -46q-80 0 -130 45q-39 38 -48 94h70q8 -28 25 -44zM295 686l-45 -137h-62l39 137h68z" />
    <glyph glyph-name="Scedilla" unicode="&#x15e;" horiz-adv-x="536" 
d="M496 183q0 -37 -14.5 -70t-41.5 -59q-58 -57 -158 -60l-6 -14q33 -7 55 -33.5t22 -60.5q0 -40 -28 -68t-68 -28q-37 0 -65 25l35 38q13 -11 30 -11q18 0 31 13t13 31t-13 31.5t-31 13.5q-6 0 -18 -4l-20 47l9 23q-76 11 -124 56q-53 49 -64 132h69q9 -50 42 -82
q43 -40 123 -40q68 0 110.5 33.5t42.5 86.5q0 34 -13.5 56.5t-51.5 36.5t-108 20q-192 17 -192 181q0 41 13.5 75.5t38.5 59.5q55 55 156 55h1q103 -1 157.5 -56.5t64.5 -139.5h-69v1q-5 38 -24 66q-39 60 -129 60q-75 0 -109 -34q-31 -32 -31 -87q0 -61 34 -84t95 -28
q58 -5 98 -15.5t67 -28.5q71 -44 71 -138z" />
    <glyph glyph-name="scedilla" unicode="&#x15f;" horiz-adv-x="431" 
d="M391 143q0 -29 -11.5 -55.5t-32.5 -46.5q-44 -43 -117 -46l-6 -15q33 -7 55 -33.5t22 -60.5q0 -40 -28 -68t-68 -28q-37 0 -65 25l35 38q13 -11 30 -11q18 0 31 13t13 31t-13 31.5t-31 13.5q-6 0 -18 -4l-20 47l10 25q-54 9 -89 41q-39 38 -48 94h70q8 -28 25 -44
q28 -26 82 -26q47 0 76 22t29 57q0 33 -13 49t-33.5 20.5t-56.5 5.5q-52 3 -85 11.5t-60 38.5q-33 41 -33 90q0 12 1 18q8 63 53 96.5t121 33.5h1q56 0 91 -21t54 -51q20 -33 25 -69h-70q-2 14 -13 33q-25 38 -87 40q-63 0 -83 -21t-24 -49q-1 -4 -1 -11q0 -24 17 -43
q14 -17 36 -22.5t63 -8.5q33 -2 56.5 -6t44.5 -15q65 -35 65 -119z" />
    <glyph glyph-name="Scaron" unicode="&#x160;" horiz-adv-x="536" 
d="M424 472q-5 38 -24 66q-39 60 -129 60q-75 0 -109 -34q-31 -32 -31 -87q0 -61 34 -84t95 -28q58 -5 98 -15.5t67 -28.5q71 -44 71 -138q0 -37 -14.5 -70t-41.5 -59q-61 -60 -167 -60q-107 0 -169 59q-53 49 -64 132h69q9 -50 42 -82q43 -40 123 -40q68 0 110.5 33.5
t42.5 86.5q0 34 -13.5 56.5t-51.5 36.5t-108 20q-192 17 -192 181q0 41 13.5 75.5t38.5 59.5q55 55 156 55h1q103 -1 157.5 -56.5t64.5 -139.5h-69v1zM396 841l-127 -131l-133 131h78l54 -53l52 53h76z" />
    <glyph glyph-name="scaron" unicode="&#x161;" horiz-adv-x="431" 
d="M135 90q28 -26 82 -26q47 0 76 22t29 57q0 33 -13 49t-33.5 20.5t-56.5 5.5q-52 3 -85 11.5t-60 38.5q-33 41 -33 90q0 12 1 18q8 63 53 96.5t121 33.5h1q56 0 91 -21t54 -51q20 -33 25 -69h-70q-2 14 -13 33q-25 38 -87 40q-63 0 -83 -21t-24 -49q-1 -4 -1 -11
q0 -24 17 -43q14 -17 36 -22.5t63 -8.5q33 -2 56.5 -6t44.5 -15q65 -35 65 -119q0 -29 -11.5 -55.5t-32.5 -46.5q-47 -46 -129 -46q-80 0 -130 45q-39 38 -48 94h70q8 -28 25 -44zM344 676l-127 -131l-133 131h78l54 -53l52 53h76z" />
    <glyph glyph-name="uni0162" unicode="&#x162;" horiz-adv-x="490" 
d="M261 0l-8 -20q33 -7 55 -33.5t22 -60.5q0 -40 -28 -68t-68 -28q-37 0 -65 25l35 38q13 -11 30 -11q18 0 31 13t13 31t-13 31.5t-31 13.5q-6 0 -18 -4l-20 47l15 38v586h-171v67h410v-67h-171v-598h-18z" />
    <glyph glyph-name="uni0163" unicode="&#x163;" horiz-adv-x="315" 
d="M180 0l-14 -34q33 -7 55 -33.5t22 -60.5q0 -40 -28 -68t-68 -28q-37 0 -65 25l35 38q13 -11 30 -11q18 0 31 13t13 31t-13 31.5t-31 13.5q-6 0 -18 -4l-20 47l16 40h-2v432h-83v68h83v165h69v-165h83v-68h-83v-432h-12z" />
    <glyph glyph-name="Tcaron" unicode="&#x164;" horiz-adv-x="490" 
d="M450 598h-171v-598h-68v598h-171v67h410v-67zM373 841l-127 -131l-133 131h78l54 -53l52 53h76z" />
    <glyph glyph-name="tcaron" unicode="&#x165;" horiz-adv-x="340" 
d="M288 432h-83v-432h-69v432h-83v68h83v165h69v-165h83v-68zM300 833l-127 -131l-133 131h78l54 -53l52 53h76z" />
    <glyph glyph-name="Tbar" unicode="&#x166;" horiz-adv-x="490" 
d="M279 598v-235h147v-50h-147v-313h-68v313h-148v50h148v235h-171v67h410v-67h-171z" />
    <glyph glyph-name="tbar" unicode="&#x167;" horiz-adv-x="315" 
d="M192 432v-108h52v-50h-52v-274h-69v274h-53v50h53v108h-83v68h83v165h69v-165h83v-68h-83z" />
    <glyph glyph-name="Umacron" unicode="&#x16a;" horiz-adv-x="564" 
d="M166 24.5q-53 31.5 -84.5 84.5t-31.5 116v440h67v-440q0 -45 22 -82.5t60 -59t83 -21.5t83.5 21.5t60.5 59t22 82.5v440h66v-440q0 -63 -31.5 -116t-84.5 -84.5t-116 -31.5t-116 31.5zM141 735v50h281v-50h-281z" />
    <glyph glyph-name="umacron" unicode="&#x16b;" horiz-adv-x="487" 
d="M139.5 22.5q-45.5 26.5 -72.5 72t-27 99.5v306h69v-306q0 -35 17.5 -65t47.5 -47.5t65 -17.5t65 17.5t47.5 47.5t17.5 65v306h68v-495h-68v48q-25 -28 -58.5 -42.5t-71.5 -14.5q-54 0 -99.5 26.5zM103 570v50h281v-50h-281z" />
    <glyph glyph-name="Uring" unicode="&#x16e;" horiz-adv-x="564" 
d="M166 24.5q-53 31.5 -84.5 84.5t-31.5 116v440h67v-440q0 -45 22 -82.5t60 -59t83 -21.5t83.5 21.5t60.5 59t22 82.5v440h66v-440q0 -63 -31.5 -116t-84.5 -84.5t-116 -31.5t-116 31.5zM239 722q-20 11 -33 30q-15 23 -15 50q0 24 11 43.5t30 31.5q22 15 50 15
q22 0 42.5 -10.5t32.5 -29.5q15 -22 15 -50q0 -22 -10.5 -42.5t-29.5 -33.5q-24 -15 -50 -15q-23 0 -43 11zM256 840q-15 -9 -20 -29l-1 -9q0 -13 8 -26q7 -10 17.5 -15.5t21.5 -5.5q12 0 25 8q10 7 16 17.5t6 21.5q0 12 -8 25q-16 21 -39 21q-15 0 -26 -8z" />
    <glyph glyph-name="uring" unicode="&#x16f;" horiz-adv-x="487" 
d="M139.5 22.5q-45.5 26.5 -72.5 72t-27 99.5v306h69v-306q0 -35 17.5 -65t47.5 -47.5t65 -17.5t65 17.5t47.5 47.5t17.5 65v306h68v-495h-68v48q-25 -28 -58.5 -42.5t-71.5 -14.5q-54 0 -99.5 26.5zM201 557q-20 11 -33 30q-15 23 -15 50q0 24 11 43.5t30 31.5q22 15 50 15
q22 0 42.5 -10.5t32.5 -29.5q15 -22 15 -50q0 -22 -10.5 -42.5t-29.5 -33.5q-24 -15 -50 -15q-23 0 -43 11zM218 675q-15 -9 -20 -29l-1 -9q0 -13 8 -26q7 -10 17.5 -15.5t21.5 -5.5q12 0 25 8q10 7 16 17.5t6 21.5q0 12 -8 25q-16 21 -39 21q-15 0 -26 -8z" />
    <glyph glyph-name="Uhungarumlaut" unicode="&#x170;" horiz-adv-x="564" 
d="M166 24.5q-53 31.5 -84.5 84.5t-31.5 116v440h67v-440q0 -45 22 -82.5t60 -59t83 -21.5t83.5 21.5t60.5 59t22 82.5v440h66v-440q0 -63 -31.5 -116t-84.5 -84.5t-116 -31.5t-116 31.5zM296 850l-45 -137h-62l39 137h68zM409 850l-45 -137h-62l39 137h68z" />
    <glyph glyph-name="uhungarumlaut" unicode="&#x171;" horiz-adv-x="487" 
d="M139.5 22.5q-45.5 26.5 -72.5 72t-27 99.5v306h69v-306q0 -35 17.5 -65t47.5 -47.5t65 -17.5t65 17.5t47.5 47.5t17.5 65v306h68v-495h-68v48q-25 -28 -58.5 -42.5t-71.5 -14.5q-54 0 -99.5 26.5zM258 685l-45 -137h-62l39 137h68zM371 685l-45 -137h-62l39 137h68z" />
    <glyph glyph-name="Uogonek" unicode="&#x172;" horiz-adv-x="564" 
d="M514 665v-440q0 -57 -26 -106.5t-71.5 -82.5t-100.5 -41l-1 -55l-13 1q-8 0 -11 -1q-18 -1 -30.5 -15t-12.5 -32q0 -16 9.5 -28.5t25.5 -16.5l12 -1q24 0 41 18l40 -37q-29 -34 -74 -36h-9q-15 0 -23 2q-33 8 -54.5 36t-21.5 62q0 35 18.5 60.5t49.5 36.5v5
q-59 5 -107.5 37.5t-76.5 83.5t-28 110v440h67v-440q0 -45 22 -82.5t60 -59t83 -21.5t83.5 21.5t60.5 59t22 82.5v440h66z" />
    <glyph glyph-name="uogonek" unicode="&#x173;" horiz-adv-x="487" 
d="M497 -167q-29 -34 -74 -36h-9q-15 0 -23 2q-33 8 -54.5 36t-21.5 62q0 35 18.5 60.5t49.5 36.5l1 11h-15v48q-25 -28 -58.5 -42.5t-71.5 -14.5q-54 0 -99.5 26.5t-72.5 72t-27 99.5v306h69v-306q0 -35 17.5 -65t47.5 -47.5t65 -17.5t65 17.5t47.5 47.5t17.5 65v306h68
v-495l-1 -60l-13 1q-8 0 -11 -1q-18 -1 -30.5 -15t-12.5 -32q0 -16 9.5 -28.5t25.5 -16.5l12 -1q24 0 41 18z" />
    <glyph glyph-name="Wcircumflex" unicode="&#x174;" horiz-adv-x="926" 
d="M316 100l112 321l-88 245h73l88 -245l116 -321l196 566h73l-232 -666h-74l-115 319l-111 -319h-75l-239 666h73zM462 763l-54 -53h-78l133 131l127 -131h-76z" />
    <glyph glyph-name="wcircumflex" unicode="&#x175;" horiz-adv-x="826" 
d="M786 500l-197 -500h-72l-103 259l-103 -259h-72l-199 500h74l161 -405l102 256l-59 149h74l161 -405l160 405h73zM412 598l-54 -53h-78l133 131l127 -131h-76z" />
    <glyph glyph-name="Ycircumflex" unicode="&#x176;" horiz-adv-x="560" 
d="M315 245v-245h-69v243l-206 422h76l164 -335l164 335h76zM279 763l-54 -53h-78l133 131l127 -131h-76z" />
    <glyph glyph-name="ycircumflex" unicode="&#x177;" horiz-adv-x="524" 
d="M474 500v-496q0 -59 -29 -109t-79 -79t-109 -29q-57 0 -105 27t-78 73l60 34q20 -30 52.5 -48t70.5 -18q40 0 74.5 20t54.5 54.5t20 74.5v53q-30 -28 -68 -43.5t-81 -15.5q-58 0 -107.5 28.5t-79 76.5t-30.5 106v291h68v-285q0 -40 20 -74.5t54.5 -54.5t74.5 -20t74.5 20
t54.5 54.5t20 74.5v285h68zM261 598l-54 -53h-78l133 131l127 -131h-76z" />
    <glyph glyph-name="Ydieresis" unicode="&#x178;" horiz-adv-x="560" 
d="M315 245v-245h-69v243l-206 422h76l164 -335l164 335h76zM393 725.5q12 11.5 12 28.5t-12 28.5t-29 11.5q-16 0 -27.5 -12t-11.5 -28t11.5 -28t27.5 -12q17 0 29 11.5zM215 725.5q12 11.5 12 28.5t-12 28.5t-29 11.5q-16 0 -27.5 -12t-11.5 -28t11.5 -28t27.5 -12
q17 0 29 11.5z" />
    <glyph glyph-name="Zacute" unicode="&#x179;" horiz-adv-x="532" 
d="M492 0h-452v66l368 531h-368v68h452v-68l-367 -528h367v-69zM388 851l-45 -137h-62l39 137h68z" />
    <glyph glyph-name="zacute" unicode="&#x17a;" horiz-adv-x="485" 
d="M445 68v-68h-405v68l313 359h-313v69h405v-69l-312 -359h312zM313 686l-45 -137h-62l39 137h68z" />
    <glyph glyph-name="Zdotaccent" unicode="&#x17b;" horiz-adv-x="532" 
d="M492 0h-452v66l368 531h-368v68h452v-68l-367 -528h367v-69zM290 745.5q12 11.5 12 28.5t-12 28.5t-29 11.5q-16 0 -27.5 -12t-11.5 -28t11.5 -28t27.5 -12q17 0 29 11.5z" />
    <glyph glyph-name="zdotaccent" unicode="&#x17c;" horiz-adv-x="485" 
d="M445 68v-68h-405v68l313 359h-313v69h405v-69l-312 -359h312zM267 580.5q12 11.5 12 28.5t-12 28.5t-29 11.5q-16 0 -27.5 -12t-11.5 -28t11.5 -28t27.5 -12q17 0 29 11.5z" />
    <glyph glyph-name="Zcaron" unicode="&#x17d;" horiz-adv-x="532" 
d="M492 0h-452v66l368 531h-368v68h452v-68l-367 -528h367v-69zM394 841l-127 -131l-133 131h78l54 -53l52 53h76z" />
    <glyph glyph-name="zcaron" unicode="&#x17e;" horiz-adv-x="485" 
d="M445 68v-68h-405v68l313 359h-313v69h405v-69l-312 -359h312zM371 676l-127 -131l-133 131h78l54 -53l52 53h76z" />
    <glyph glyph-name="florin" unicode="&#x192;" horiz-adv-x="358" 
d="M247 568q-34 -34 -34 -81v-207h84v-68h-84v-204q0 -50 -24.5 -92t-66.5 -66.5t-92 -24.5v68q47 0 81 34t34 81v204h-83v68h83v207q0 50 24.5 92t66.5 66.5t92 24.5v-68q-47 0 -81 -34z" />
    <glyph glyph-name="uni0237" unicode="&#x237;" horiz-adv-x="243" 
d="M81.5 -111q33.5 34 33.5 81v530h69v-530q0 -50 -24.5 -92t-67 -66.5t-92.5 -24.5v68q48 0 81.5 34z" />
    <glyph glyph-name="circumflex" unicode="&#x2c6;" horiz-adv-x="600" 
d="M132 598l-54 -53h-78l133 131l127 -131h-76z" />
    <glyph glyph-name="caron" unicode="&#x2c7;" horiz-adv-x="600" 
d="M260 676l-127 -131l-133 131h78l54 -53l52 53h76z" />
    <glyph glyph-name="breve" unicode="&#x2d8;" horiz-adv-x="600" 
d="M271 682q-2 -31 -18 -57.5t-43 -44.5q-35 -23 -74 -23q-34 0 -64.5 16t-49.5 45t-22 64h55q4 -19 13 -33q12 -18 29.5 -27.5t37.5 -9.5q23 0 45 14q15 10 24.5 24.5t11.5 31.5h55z" />
    <glyph glyph-name="dotaccent" unicode="&#x2d9;" horiz-adv-x="600" 
d="M68 580.5q12 11.5 12 28.5t-12 28.5t-29 11.5q-16 0 -27.5 -12t-11.5 -28t11.5 -28t27.5 -12q17 0 29 11.5z" />
    <glyph glyph-name="ring" unicode="&#x2da;" horiz-adv-x="600" 
d="M48 557q-20 11 -33 30q-15 23 -15 50q0 24 11 43.5t30 31.5q22 15 50 15q22 0 42.5 -10.5t32.5 -29.5q15 -22 15 -50q0 -22 -10.5 -42.5t-29.5 -33.5q-24 -15 -50 -15q-23 0 -43 11zM65 675q-15 -9 -20 -29l-1 -9q0 -13 8 -26q7 -10 17.5 -15.5t21.5 -5.5q12 0 25 8
q10 7 16 17.5t6 21.5q0 12 -8 25q-16 21 -39 21q-15 0 -26 -8z" />
    <glyph glyph-name="ogonek" unicode="&#x2db;" horiz-adv-x="600" 
d="M99 -208q-15 0 -23 2q-33 8 -54.5 36t-21.5 62q0 35 18.5 60.5t49.5 36.5l1 17l53 1l-1 -67l-13 1q-8 0 -11 -1q-18 -1 -30.5 -15t-12.5 -32q0 -16 9.5 -28.5t25.5 -16.5l12 -1q24 0 41 18l40 -37q-29 -34 -74 -36h-9z" />
    <glyph glyph-name="tilde" unicode="&#x2dc;" horiz-adv-x="600" 
d="M308 601q-22 -35 -45 -51.5t-50 -16.5q-17 0 -33.5 6t-37.5 17q-18 9 -30 13.5t-24 5.5q-20 0 -39 -33l-4 -9l-45 36q11 20 27 35q26 27 60 27q20 0 37.5 -6t43.5 -19q19 -10 29.5 -13.5t19.5 -2.5q14 1 24.5 12.5t21.5 33.5z" />
    <glyph glyph-name="hungarumlaut" unicode="&#x2dd;" horiz-adv-x="600" 
d="M107 685l-45 -137h-62l39 137h68zM220 685l-45 -137h-62l39 137h68z" />
    <glyph glyph-name="gravecomb" unicode="&#x300;" 
d="M0 549h-62l-45 137h68z" />
    <glyph glyph-name="acutecomb" unicode="&#x301;" 
d="M0 686l-45 -137h-62l39 137h68z" />
    <glyph glyph-name="uni0302" unicode="&#x302;" 
d="M-128 598l-54 -53h-78l133 131l127 -131h-76z" />
    <glyph glyph-name="tildecomb" unicode="&#x303;" 
d="M0 601q-22 -35 -45 -51.5t-50 -16.5q-17 0 -33.5 6t-37.5 17q-18 9 -30 13.5t-24 5.5q-20 0 -39 -33l-4 -9l-45 36q11 20 27 35q26 27 60 27q20 0 37.5 -6t43.5 -19q19 -10 29.5 -13.5t19.5 -2.5q14 1 24.5 12.5t21.5 33.5z" />
    <glyph glyph-name="uni0304" unicode="&#x304;" 
d="M-281 570v50h281v-50h-281z" />
    <glyph glyph-name="uni0306" unicode="&#x306;" 
d="M0 682q-2 -31 -18 -57.5t-43 -44.5q-35 -23 -74 -23q-34 0 -64.5 16t-49.5 45t-22 64h55q4 -19 13 -33q12 -18 29.5 -27.5t37.5 -9.5q23 0 45 14q15 10 24.5 24.5t11.5 31.5h55z" />
    <glyph glyph-name="uni0307" unicode="&#x307;" 
d="M-12 580.5q12 11.5 12 28.5t-12 28.5t-29 11.5q-16 0 -27.5 -12t-11.5 -28t11.5 -28t27.5 -12q17 0 29 11.5z" />
    <glyph glyph-name="uni0308" unicode="&#x308;" 
d="M-12 560.5q12 11.5 12 28.5t-12 28.5t-29 11.5q-16 0 -27.5 -12t-11.5 -28t11.5 -28t27.5 -12q17 0 29 11.5zM-190 560.5q12 11.5 12 28.5t-12 28.5t-29 11.5q-16 0 -27.5 -12t-11.5 -28t11.5 -28t27.5 -12q17 0 29 11.5z" />
    <glyph glyph-name="uni030A" unicode="&#x30a;" 
d="M-133 557q-20 11 -33 30q-15 23 -15 50q0 24 11 43.5t30 31.5q22 15 50 15q22 0 42.5 -10.5t32.5 -29.5q15 -22 15 -50q0 -22 -10.5 -42.5t-29.5 -33.5q-24 -15 -50 -15q-23 0 -43 11zM-116 675q-15 -9 -20 -29l-1 -9q0 -13 8 -26q7 -10 17.5 -15.5t21.5 -5.5q12 0 25 8
q10 7 16 17.5t6 21.5q0 12 -8 25q-16 21 -39 21q-15 0 -26 -8z" />
    <glyph glyph-name="uni030B" unicode="&#x30b;" 
d="M-113 685l-45 -137h-62l39 137h68zM0 685l-45 -137h-62l39 137h68z" />
    <glyph glyph-name="uni030C" unicode="&#x30c;" 
d="M0 676l-127 -131l-133 131h78l54 -53l52 53h76z" />
    <glyph glyph-name="uni0312" unicode="&#x312;" 
d="M-62 704h62l-38 -135h-69z" />
    <glyph glyph-name="uni0326" unicode="&#x326;" 
d="M-45 -188h-62l41 152h66z" />
    <glyph glyph-name="uni0327" unicode="&#x327;" 
d="M-22 -53.5q22 -26.5 22 -60.5q0 -40 -28 -68t-68 -28q-37 0 -65 25l35 38q13 -11 30 -11q18 0 31 13t13 31t-13 31.5t-31 13.5q-6 0 -18 -4l-20 47l16 41h55l-14 -35q33 -7 55 -33.5z" />
    <glyph glyph-name="uni0328" unicode="&#x328;" 
d="M-83 -208q-15 0 -23 2q-33 8 -54.5 36t-21.5 62q0 35 18.5 60.5t49.5 36.5l1 17l53 1l-1 -67l-13 1q-8 0 -11 -1q-18 -1 -30.5 -15t-12.5 -32q0 -16 9.5 -28.5t25.5 -16.5l12 -1q24 0 41 18l40 -37q-29 -34 -74 -36h-9z" />
    <glyph glyph-name="uni0335" unicode="&#x335;" 
d="M-426 316h426v-50h-426v50z" />
    <glyph glyph-name="uni0337" unicode="&#x337;" 
d="M-299 -10h-77l299 556h77z" />
    <glyph glyph-name="uni0338" unicode="&#x338;" 
d="M0 666l-358 -666h-77l358 666h77z" />
    <glyph glyph-name="uni03BC" unicode="&#x3bc;" horiz-adv-x="487" 
d="M437 500v-495h-68v48q-25 -28 -58.5 -42.5t-71.5 -14.5q-74 0 -130 48v-129h-69v585h69v-306q0 -35 17.5 -65t47.5 -47.5t65 -17.5t65 17.5t47.5 47.5t17.5 65v306h68z" />
    <glyph glyph-name="Wgrave" unicode="&#x1e80;" horiz-adv-x="926" 
d="M316 100l112 321l-88 245h73l88 -245l116 -321l196 566h73l-232 -666h-74l-115 319l-111 -319h-75l-239 666h73zM488 714h-62l-45 137h68z" />
    <glyph glyph-name="wgrave" unicode="&#x1e81;" horiz-adv-x="826" 
d="M786 500l-197 -500h-72l-103 259l-103 -259h-72l-199 500h74l161 -405l102 256l-59 149h74l161 -405l160 405h73zM438 549h-62l-45 137h68z" />
    <glyph glyph-name="Wacute" unicode="&#x1e82;" horiz-adv-x="926" 
d="M316 100l112 321l-88 245h73l88 -245l116 -321l196 566h73l-232 -666h-74l-115 319l-111 -319h-75l-239 666h73zM585 851l-45 -137h-62l39 137h68z" />
    <glyph glyph-name="wacute" unicode="&#x1e83;" horiz-adv-x="826" 
d="M786 500l-197 -500h-72l-103 259l-103 -259h-72l-199 500h74l161 -405l102 256l-59 149h74l161 -405l160 405h73zM535 686l-45 -137h-62l39 137h68z" />
    <glyph glyph-name="Wdieresis" unicode="&#x1e84;" horiz-adv-x="926" 
d="M316 100l112 321l-88 245h73l88 -245l116 -321l196 566h73l-232 -666h-74l-115 319l-111 -319h-75l-239 666h73zM576 725.5q12 11.5 12 28.5t-12 28.5t-29 11.5q-16 0 -27.5 -12t-11.5 -28t11.5 -28t27.5 -12q17 0 29 11.5zM398 725.5q12 11.5 12 28.5t-12 28.5t-29 11.5
q-16 0 -27.5 -12t-11.5 -28t11.5 -28t27.5 -12q17 0 29 11.5z" />
    <glyph glyph-name="wdieresis" unicode="&#x1e85;" horiz-adv-x="826" 
d="M786 500l-197 -500h-72l-103 259l-103 -259h-72l-199 500h74l161 -405l102 256l-59 149h74l161 -405l160 405h73zM526 560.5q12 11.5 12 28.5t-12 28.5t-29 11.5q-16 0 -27.5 -12t-11.5 -28t11.5 -28t27.5 -12q17 0 29 11.5zM348 560.5q12 11.5 12 28.5t-12 28.5
t-29 11.5q-16 0 -27.5 -12t-11.5 -28t11.5 -28t27.5 -12q17 0 29 11.5z" />
    <glyph glyph-name="Ygrave" unicode="&#x1ef2;" horiz-adv-x="560" 
d="M315 245v-245h-69v243l-206 422h76l164 -335l164 335h76zM305 714h-62l-45 137h68z" />
    <glyph glyph-name="ygrave" unicode="&#x1ef3;" horiz-adv-x="524" 
d="M474 500v-496q0 -59 -29 -109t-79 -79t-109 -29q-57 0 -105 27t-78 73l60 34q20 -30 52.5 -48t70.5 -18q40 0 74.5 20t54.5 54.5t20 74.5v53q-30 -28 -68 -43.5t-81 -15.5q-58 0 -107.5 28.5t-79 76.5t-30.5 106v291h68v-285q0 -40 20 -74.5t54.5 -54.5t74.5 -20t74.5 20
t54.5 54.5t20 74.5v285h68zM287 549h-62l-45 137h68z" />
    <glyph glyph-name="endash" unicode="&#x2013;" horiz-adv-x="550" 
d="M40 246v68h470v-68h-470z" />
    <glyph glyph-name="emdash" unicode="&#x2014;" horiz-adv-x="705" 
d="M40 246v68h625v-68h-625z" />
    <glyph glyph-name="quoteleft" unicode="&#x2018;" horiz-adv-x="171" 
d="M171 479h-62l-69 209h72z" />
    <glyph glyph-name="quoteright" unicode="&#x2019;" horiz-adv-x="171" 
d="M171 688l-69 -209h-62l59 209h72z" />
    <glyph glyph-name="quotesinglbase" unicode="&#x201a;" horiz-adv-x="211" 
d="M171 107l-69 -209h-62l59 209h72z" />
    <glyph glyph-name="quotedblleft" unicode="&#x201c;" horiz-adv-x="306" 
d="M171 479h-62l-69 209h72zM306 479h-62l-69 209h72z" />
    <glyph glyph-name="quotedblright" unicode="&#x201d;" horiz-adv-x="306" 
d="M131 688l-69 -209h-62l59 209h72zM266 688l-69 -209h-62l59 209h72z" />
    <glyph glyph-name="quotedblbase" unicode="&#x201e;" horiz-adv-x="355" 
d="M315 107l-69 -209h-62l59 209h72zM171 107l-69 -209h-62l59 209h72z" />
    <glyph glyph-name="dagger" unicode="&#x2020;" horiz-adv-x="371" 
d="M331 447h-110v-260h-72v260h-109v72h109v146h72v-146h110v-72z" />
    <glyph glyph-name="daggerdbl" unicode="&#x2021;" horiz-adv-x="371" 
d="M221 447v-72h110v-72h-110v-116h-72v116h-109v72h109v72h-109v72h109v146h72v-146h110v-72h-110z" />
    <glyph glyph-name="bullet" unicode="&#x2022;" horiz-adv-x="325" 
d="M249 387.5q36 -35.5 36 -86.5t-36 -86.5t-87 -35.5t-86.5 35.5t-35.5 86.5t35.5 86.5t86.5 35.5t87 -35.5z" />
    <glyph glyph-name="ellipsis" unicode="&#x2026;" horiz-adv-x="534" 
d="M463 13.5q12 11.5 12 28.5t-12 28.5t-29 11.5q-16 0 -27.5 -12t-11.5 -28t11.5 -28t27.5 -12q17 0 29 11.5zM118 13.5q12 11.5 12 28.5t-12 28.5t-29 11.5q-16 0 -27.5 -12t-11.5 -28t11.5 -28t27.5 -12q17 0 29 11.5zM291 13.5q12 11.5 12 28.5t-12 28.5t-29 11.5
q-16 0 -27.5 -12t-11.5 -28t11.5 -28t27.5 -12q17 0 29 11.5z" />
    <glyph glyph-name="perthousand" unicode="&#x2030;" horiz-adv-x="981" 
d="M108.5 647.5q-31.5 -18.5 -50 -50.5t-18.5 -69t18.5 -68.5t50 -50t68.5 -18.5t68.5 18.5t50 50t18.5 68.5t-18.5 69t-50 50.5t-68.5 18.5t-68.5 -18.5zM546 666l-358 -666h-77l358 666h77zM226 577q20 -20 20 -49q0 -28 -20 -48.5t-49 -20.5q-28 0 -48.5 20.5t-20.5 48.5
q0 29 20.5 49t48.5 20q29 0 49 -20zM401.5 253.5q-31.5 -18.5 -50 -50t-18.5 -68.5t18.5 -68.5t50 -50t68.5 -18.5t69 18.5t50.5 50t18.5 68.5t-18.5 68.5t-50.5 50t-69 18.5t-68.5 -18.5zM734.5 253.5q-31.5 -18.5 -50 -50t-18.5 -68.5t18.5 -68.5t50 -50t68.5 -18.5
t69 18.5t50.5 50t18.5 68.5t-18.5 68.5t-50.5 50t-69 18.5t-68.5 -18.5zM519 184q20 -20 20 -49q0 -28 -20 -48.5t-49 -20.5q-28 0 -48.5 20.5t-20.5 48.5q0 29 20.5 49t48.5 20q29 0 49 -20zM852 184q20 -20 20 -49q0 -28 -20 -48.5t-49 -20.5q-28 0 -48.5 20.5t-20.5 48.5
q0 29 20.5 49t48.5 20q29 0 49 -20z" />
    <glyph glyph-name="guilsinglleft" unicode="&#x2039;" horiz-adv-x="365" 
d="M229 87l-189 191l179 193h94l-178 -191l190 -193h-96z" />
    <glyph glyph-name="guilsinglright" unicode="&#x203a;" horiz-adv-x="365" 
d="M230 280l-178 191h94l179 -193l-189 -191h-96z" />
    <glyph glyph-name="fraction" unicode="&#x2044;" horiz-adv-x="276" 
d="M334 666l-358 -666h-56l358 666h56z" />
    <glyph glyph-name="uni2070" unicode="&#x2070;" horiz-adv-x="353" 
d="M163 674q-35 0 -65 -17.5t-47.5 -47.5t-17.5 -65v-202q0 -35 17.5 -65.5t47.5 -48t65 -17.5h27q35 0 65 17.5t47.5 47.5t17.5 66v202q0 35 -17.5 65t-47.5 47.5t-65 17.5h-27zM243 594q23 -23 23 -56v-194q0 -32 -23 -57q-26 -24 -58 -24h-18q-33 0 -57 24t-24 57v194
q0 35 24 57q25 23 57 23h18q33 0 58 -24z" />
    <glyph glyph-name="uni2074" unicode="&#x2074;" horiz-adv-x="353" 
d="M268 385h62v-58h-62v-123h-57v123h-191l149 353h62l-125 -295h105v74h57v-74z" />
    <glyph glyph-name="uni2075" unicode="&#x2075;" horiz-adv-x="326" 
d="M34 205v58h116q36 0 62 26t26 62t-26 62t-62 26h-120v241h242v-57h-184v-127h62q39 0 72.5 -19.5t53.5 -53t20 -72.5t-20 -72.5t-53.5 -53.5t-72.5 -20h-116z" />
    <glyph glyph-name="uni2076" unicode="&#x2076;" horiz-adv-x="339" 
d="M242.5 476q33.5 -20 53.5 -53.5t20 -73.5t-20 -73.5t-53.5 -53.5t-73.5 -20q-39 0 -72.5 20t-53.5 53.5t-20 73.5q0 32 12 60l117 271h63l-81 -189q18 5 35 5q40 0 73.5 -20zM232 286.5q26 25.5 26 62.5t-26 62.5t-63 25.5t-62.5 -25.5t-25.5 -62.5t25.5 -62.5
t62.5 -25.5t63 25.5z" />
    <glyph glyph-name="uni2077" unicode="&#x2077;" horiz-adv-x="300" 
d="M199 622h-176v58h248l-103 -475h-59z" />
    <glyph glyph-name="uni2078" unicode="&#x2078;" horiz-adv-x="335" 
d="M312 346q0 -42 -23.5 -78.5t-63.5 -54.5q-28 -12 -57 -12q-43 0 -79 23.5t-54 63.5q-12 27 -12 57q0 36 16 67.5t46 51.5q-18 16 -30 42q-10 21 -10 48q0 36 19.5 66.5t53.5 46.5q30 10 49 10q37 0 67.5 -20t45.5 -54q10 -23 10 -49q0 -25 -10.5 -48.5t-29.5 -41.5
q34 -22 50 -60q12 -28 12 -58zM102 556q0 -12 7 -28q7 -19 23.5 -28.5t35.5 -9.5q21 0 37.5 10.5t22.5 30.5q5 12 5 22q0 14 -6 27q-7 17 -23.5 28t-35.5 11h-1q-14 0 -26 -5q-25 -11 -34 -36q-5 -12 -5 -22zM240.5 298q14.5 22 14.5 47q0 17 -8 36q-9 21 -27.5 34.5
t-41.5 16.5q-5 1 -12 1l-10 -1q-14 -2 -23 -6q-24 -10 -38 -32t-14 -48q0 -18 7 -35q10 -25 32 -39t48 -14q16 0 34 8q24 10 38.5 32z" />
    <glyph glyph-name="uni2079" unicode="&#x2079;" horiz-adv-x="339" 
d="M96.5 412q-33.5 20 -53.5 53.5t-20 73.5t20 73.5t53.5 53.5t73.5 20q39 0 72.5 -20t53.5 -53.5t20 -73.5q0 -31 -12 -60l-117 -271h-63l81 189q-18 -5 -35 -5q-40 0 -73.5 20zM107 601.5q-26 -25.5 -26 -62.5t26 -62.5t63 -25.5t62.5 25.5t25.5 62.5t-25.5 62.5
t-62.5 25.5t-63 -25.5z" />
    <glyph glyph-name="Euro" unicode="&#x20ac;" horiz-adv-x="594" 
d="M308 555q-68 -46 -99 -121h208v-69h-226q-2 -22 -2 -34q0 -11 2 -33h226v-69h-208q31 -75 99 -121t151 -46q49 0 95 17v-72q-48 -14 -95 -14q-74 0 -140 30t-114 84t-69 122h-96v69h82q-2 22 -2 33q0 12 2 34h-82v69h96q22 68 69.5 122t113.5 84t140 30q47 0 95 -14v-72
q-46 17 -95 17q-83 0 -151 -46z" />
    <glyph glyph-name="trademark" unicode="&#x2122;" horiz-adv-x="452" 
d="M412 665v-215h-38v153l-60 -79h-36l-60 79v-154h-39v216h40l77 -100l76 100h40zM167 625h-44v-176h-39v176h-44v39h127v-39z" />
    <glyph glyph-name="oneeighth" unicode="&#x215b;" horiz-adv-x="863" 
d="M203 210h-56v378l-39 -64h-68l89 146h74v-460zM620 666l-358 -666h-56l358 666h56zM823 136q0 -42 -23.5 -78.5t-63.5 -54.5q-28 -12 -57 -12q-43 0 -79 23.5t-54 63.5q-12 27 -12 57q0 36 16 67.5t46 51.5q-18 16 -30 42q-10 21 -10 48q0 36 19.5 66.5t53.5 46.5
q30 10 49 10q37 0 67.5 -20t45.5 -54q10 -23 10 -49q0 -25 -10.5 -48.5t-29.5 -41.5q34 -22 50 -60q12 -28 12 -58zM613 346q0 -12 7 -28q7 -19 23.5 -28.5t35.5 -9.5q21 0 37.5 10.5t22.5 30.5q5 12 5 22q0 14 -6 27q-7 17 -23.5 28t-35.5 11h-1q-14 0 -26 -5
q-25 -11 -34 -36q-5 -12 -5 -22zM751.5 88q14.5 22 14.5 47q0 17 -8 36q-9 21 -27.5 34.5t-41.5 16.5q-5 1 -12 1l-10 -1q-14 -2 -23 -6q-24 -10 -38 -32t-14 -48q0 -18 7 -35q10 -25 32 -39t48 -14q16 0 34 8q24 10 38.5 32z" />
    <glyph glyph-name="threeeighths" unicode="&#x215c;" horiz-adv-x="914" 
d="M269.5 395.5q13.5 -27.5 13.5 -57.5q0 -36 -18 -66.5t-48.5 -48.5t-66.5 -18h-110v58h110q32 0 54 21.5t22 53.5t-22 54t-54 22h-44v57h44q32 0 54 22.5t22 53.5q0 32 -22 53.5t-54 21.5h-110v58h110q36 0 66.5 -18t48.5 -48.5t18 -66.5q0 -31 -13.5 -58.5t-36.5 -46.5
q23 -19 36.5 -46.5zM649 666l-358 -666h-56l358 666h56zM874 136q0 -42 -23.5 -78.5t-63.5 -54.5q-28 -12 -57 -12q-43 0 -79 23.5t-54 63.5q-12 27 -12 57q0 36 16 67.5t46 51.5q-18 16 -30 42q-10 21 -10 48q0 36 19.5 66.5t53.5 46.5q30 10 49 10q37 0 67.5 -20t45.5 -54
q10 -23 10 -49q0 -25 -10.5 -48.5t-29.5 -41.5q34 -22 50 -60q12 -28 12 -58zM664 346q0 -12 7 -28q7 -19 23.5 -28.5t35.5 -9.5q21 0 37.5 10.5t22.5 30.5q5 12 5 22q0 14 -6 27q-7 17 -23.5 28t-35.5 11h-1q-14 0 -26 -5q-25 -11 -34 -36q-5 -12 -5 -22zM802.5 88
q14.5 22 14.5 47q0 17 -8 36q-9 21 -27.5 34.5t-41.5 16.5q-5 1 -12 1l-10 -1q-14 -2 -23 -6q-24 -10 -38 -32t-14 -48q0 -18 7 -35q10 -25 32 -39t48 -14q16 0 34 8q24 10 38.5 32z" />
    <glyph glyph-name="fiveeighths" unicode="&#x215d;" horiz-adv-x="944" 
d="M44 205v58h116q36 0 62 26t26 62t-26 62t-62 26h-120v241h242v-57h-184v-127h62q39 0 72.5 -19.5t53.5 -53t20 -72.5t-20 -72.5t-53.5 -53.5t-72.5 -20h-116zM670 666l-358 -666h-56l358 666h56zM904 136q0 -42 -23.5 -78.5t-63.5 -54.5q-28 -12 -57 -12q-43 0 -79 23.5
t-54 63.5q-12 27 -12 57q0 36 16 67.5t46 51.5q-18 16 -30 42q-10 21 -10 48q0 36 19.5 66.5t53.5 46.5q30 10 49 10q37 0 67.5 -20t45.5 -54q10 -23 10 -49q0 -25 -10.5 -48.5t-29.5 -41.5q34 -22 50 -60q12 -28 12 -58zM694 346q0 -12 7 -28q7 -19 23.5 -28.5t35.5 -9.5
q21 0 37.5 10.5t22.5 30.5q5 12 5 22q0 14 -6 27q-7 17 -23.5 28t-35.5 11h-1q-14 0 -26 -5q-25 -11 -34 -36q-5 -12 -5 -22zM832.5 88q14.5 22 14.5 47q0 17 -8 36q-9 21 -27.5 34.5t-41.5 16.5q-5 1 -12 1l-10 -1q-14 -2 -23 -6q-24 -10 -38 -32t-14 -48q0 -18 7 -35
q10 -25 32 -39t48 -14q16 0 34 8q24 10 38.5 32z" />
    <glyph glyph-name="seveneighths" unicode="&#x215e;" horiz-adv-x="905" 
d="M216 622h-176v58h248l-103 -475h-59zM631 666l-358 -666h-56l358 666h56zM865 136q0 -42 -23.5 -78.5t-63.5 -54.5q-28 -12 -57 -12q-43 0 -79 23.5t-54 63.5q-12 27 -12 57q0 36 16 67.5t46 51.5q-18 16 -30 42q-10 21 -10 48q0 36 19.5 66.5t53.5 46.5q30 10 49 10
q37 0 67.5 -20t45.5 -54q10 -23 10 -49q0 -25 -10.5 -48.5t-29.5 -41.5q34 -22 50 -60q12 -28 12 -58zM655 346q0 -12 7 -28q7 -19 23.5 -28.5t35.5 -9.5q21 0 37.5 10.5t22.5 30.5q5 12 5 22q0 14 -6 27q-7 17 -23.5 28t-35.5 11h-1q-14 0 -26 -5q-25 -11 -34 -36
q-5 -12 -5 -22zM793.5 88q14.5 22 14.5 47q0 17 -8 36q-9 21 -27.5 34.5t-41.5 16.5q-5 1 -12 1l-10 -1q-14 -2 -23 -6q-24 -10 -38 -32t-14 -48q0 -18 7 -35q10 -25 32 -39t48 -14q16 0 34 8q24 10 38.5 32z" />
    <glyph glyph-name="partialdiff" unicode="&#x2202;" horiz-adv-x="485" 
d="M445 156q0 -56 -27.5 -102.5t-74 -73.5t-100.5 -27q-56 0 -102.5 27.5t-73.5 74t-27 101.5t27.5 101t74 73t100.5 27q48 0 79 -21q-1 1 -2.5 6.5t-2.5 7.5l-12 36l-9 27q-36 112 -51 133q-24 33 -63 44q-15 5 -38 5q-8 -1 -24 -4.5t-15 -4.5l-27 63h2q31 14 70 14
q44 0 82 -19q36 -17 60 -47q13 -16 21.5 -34.5t18.5 -46.5l39 -113q14 -41 25 -70l18 -51q6 -19 20 -57q12 -38 12 -69zM358 222q-18 31 -48.5 49t-66.5 18t-67 -18t-49 -48.5t-18 -67.5q0 -36 18 -66.5t48.5 -49t66.5 -18.5t67 18t49 48.5t18 67.5q0 36 -18 67z" />
    <glyph glyph-name="emptyset" unicode="&#x2205;" horiz-adv-x="747" 
d="M666.5 490q40.5 -74 40.5 -159q0 -90 -45 -166.5t-121.5 -121.5t-167.5 -45q-71 0 -131 27l-13 -25h-69l29 54q-69 45 -109 118t-40 159q0 91 45 167.5t121.5 121.5t166.5 45q69 0 130 -26l15 27h69l-30 -56q69 -46 109.5 -120zM130 203q32 -60 86 -98l260 482
q-49 20 -102 20q-75 0 -138.5 -37t-100.5 -100.5t-37 -138.5q0 -68 32 -128zM512.5 92q63.5 37 100.5 100.5t37 138.5q0 69 -32.5 129.5t-88.5 98.5l-259 -483q48 -21 104 -21q75 0 138.5 37z" />
    <glyph glyph-name="product" unicode="&#x220f;" horiz-adv-x="577" 
d="M537 594h-105v-593h-72v593h-134v-593h-72v593h-114v72h497v-72z" />
    <glyph glyph-name="summation" unicode="&#x2211;" horiz-adv-x="470" 
d="M430 601h-309l164 -270l-164 -266h309v-69h-390v68l164 268l-164 269v69h390v-69z" />
    <glyph glyph-name="minus" unicode="&#x2212;" horiz-adv-x="550" 
d="M40 246v68h470v-68h-470z" />
    <glyph glyph-name="uni2215" unicode="&#x2215;" horiz-adv-x="512" 
d="M482 779l-388 -881h-64l388 881h64z" />
    <glyph glyph-name="radical" unicode="&#x221a;" horiz-adv-x="572" 
d="M532 666v-68h-131l-180 -598h-67l-114 267h75l67 -158l168 557h182z" />
    <glyph glyph-name="infinity" unicode="&#x221e;" horiz-adv-x="594" 
d="M486 445.5q31 -18.5 49.5 -49.5t18.5 -68q0 -36 -18.5 -67t-49.5 -49.5t-68 -18.5q-32 0 -61 15t-49 41l-11 18l-12 -18q-19 -26 -48 -41t-62 -15q-36 0 -67 18.5t-49.5 49.5t-18.5 67q0 37 18.5 68t49.5 49.5t67 18.5q33 0 62 -15.5t49 -42.5l11 -16q8 13 11 16
q19 27 48.5 42.5t61.5 15.5q37 0 68 -18.5zM256 329l-26 38q-10 13 -24.5 20.5t-30.5 7.5q-28 0 -47.5 -19.5t-19.5 -47.5t19.5 -47.5t47.5 -19.5q16 0 30.5 7.5t24.5 20.5q2 4 26 40zM465.5 280.5q19.5 19.5 19.5 47.5t-19.5 47.5t-47.5 19.5q-16 0 -30.5 -7.5t-23.5 -20.5
q-1 -2 -7 -10t-19 -28l26 -40q9 -13 23.5 -20.5t30.5 -7.5q28 0 47.5 19.5z" />
    <glyph glyph-name="integral" unicode="&#x222b;" horiz-adv-x="379" 
d="M179.5 646q24.5 42 67 66.5t92.5 24.5v-68q-48 0 -82 -34t-34 -81v-551q0 -50 -24.5 -92t-66.5 -66.5t-92 -24.5v68q47 0 81 34t34 81v551q0 50 24.5 92z" />
    <glyph glyph-name="approxequal" unicode="&#x2248;" horiz-adv-x="595" 
d="M416 287q-38 0 -67.5 11.5t-69.5 32.5l-25 12.5t-35.5 14.5t-31.5 5q-50 0 -87 -65l-60 35q28 48 64.5 73t78.5 26h3q33 0 60 -10t65 -31q34 -18 56.5 -26.5t49.5 -9.5q35 0 73 65l59 -34q-55 -99 -132 -99h-1zM416 145q-38 0 -67.5 11.5t-69.5 32.5q-35 18 -54 25.5
t-41 6.5q-21 0 -39.5 -20t-39.5 -57l-60 35q31 54 63 82t75 29h3q33 0 60 -10t65 -31q44 -24 61 -30t48 -6q21 0 42 13t34 42l59 -34q-29 -48 -63.5 -68.5t-74.5 -20.5h-1z" />
    <glyph glyph-name="notequal" unicode="&#x2260;" horiz-adv-x="550" 
d="M365 329l-81 -100h226v-69h-282l-102 -126l-54 44l67 82h-99v69h155l81 100h-236v69h292l93 114l53 -43l-57 -71h89v-69h-145z" />
    <glyph glyph-name="lessequal" unicode="&#x2264;" horiz-adv-x="613" 
d="M169 312l404 -117v-72l-532 155l-1 66l533 165v-72zM50 0v69h523v-69h-523z" />
    <glyph glyph-name="greaterequal" unicode="&#x2265;" horiz-adv-x="613" 
d="M40 509l533 -165l-1 -66l-532 -155v72l404 117l-404 125v72zM40 69h523v-69h-523v69z" />
    <glyph glyph-name="lozenge" unicode="&#x25ca;" horiz-adv-x="389" 
d="M349 321l-112 -321h-85l-112 321l112 320h85zM278 321l-83 238l-84 -238l84 -239z" />
    <glyph glyph-name="zero.dnom" horiz-adv-x="353" 
d="M163 464q-35 0 -65 -17.5t-47.5 -47.5t-17.5 -65v-202q0 -35 17.5 -65.5t47.5 -48t65 -17.5h27q35 0 65 17.5t47.5 47.5t17.5 66v202q0 35 -17.5 65t-47.5 47.5t-65 17.5h-27zM243 384q23 -23 23 -56v-194q0 -32 -23 -57q-26 -24 -58 -24h-18q-33 0 -57 24t-24 57v194
q0 35 24 57q25 23 57 23h18q33 0 58 -24z" />
    <glyph glyph-name="one.dnom" horiz-adv-x="212" 
d="M182 0h-56v378l-39 -64h-68l89 146h74v-460z" />
    <glyph glyph-name="two.dnom" horiz-adv-x="313" 
d="M28 -5q-5 40 -5 60q0 26 6 57q10 50 37.5 81.5t71.5 42.5q94 24 94 89q0 36 -26 62t-62 26h-100v57h100q40 0 73.5 -19.5t53 -53t19.5 -72.5q0 -59 -45 -99q-34 -31 -94 -46q-52 -12 -65 -79q-5 -21 -5 -48h185v-58h-238z" />
    <glyph glyph-name="three.dnom" horiz-adv-x="289" 
d="M252.5 185.5q13.5 -27.5 13.5 -57.5q0 -36 -18 -66.5t-48.5 -48.5t-66.5 -18h-110v58h110q32 0 54 21.5t22 53.5t-22 54t-54 22h-44v57h44q32 0 54 22.5t22 53.5q0 32 -22 53.5t-54 21.5h-110v58h110q36 0 66.5 -18t48.5 -48.5t18 -66.5q0 -31 -13.5 -58.5t-36.5 -46.5
q23 -19 36.5 -46.5z" />
    <glyph glyph-name="four.dnom" horiz-adv-x="353" 
d="M268 175h62v-58h-62v-123h-57v123h-191l149 353h62l-125 -295h105v74h57v-74z" />
    <glyph glyph-name="five.dnom" horiz-adv-x="326" 
d="M34 -5v58h116q36 0 62 26t26 62t-26 62t-62 26h-120v241h242v-57h-184v-127h62q39 0 72.5 -19.5t53.5 -53t20 -72.5t-20 -72.5t-53.5 -53.5t-72.5 -20h-116z" />
    <glyph glyph-name="six.dnom" horiz-adv-x="339" 
d="M242.5 266q33.5 -20 53.5 -53.5t20 -73.5t-20 -73.5t-53.5 -53.5t-73.5 -20q-39 0 -72.5 20t-53.5 53.5t-20 73.5q0 32 12 60l117 271h63l-81 -189q18 5 35 5q40 0 73.5 -20zM232 76.5q26 25.5 26 62.5t-26 62.5t-63 25.5t-62.5 -25.5t-25.5 -62.5t25.5 -62.5t62.5 -25.5
t63 25.5z" />
    <glyph glyph-name="seven.dnom" horiz-adv-x="300" 
d="M199 412h-176v58h248l-103 -475h-59z" />
    <glyph glyph-name="eight.dnom" horiz-adv-x="335" 
d="M312 136q0 -42 -23.5 -78.5t-63.5 -54.5q-28 -12 -57 -12q-43 0 -79 23.5t-54 63.5q-12 27 -12 57q0 36 16 67.5t46 51.5q-18 16 -30 42q-10 21 -10 48q0 36 19.5 66.5t53.5 46.5q30 10 49 10q37 0 67.5 -20t45.5 -54q10 -23 10 -49q0 -25 -10.5 -48.5t-29.5 -41.5
q34 -22 50 -60q12 -28 12 -58zM102 346q0 -12 7 -28q7 -19 23.5 -28.5t35.5 -9.5q21 0 37.5 10.5t22.5 30.5q5 12 5 22q0 14 -6 27q-7 17 -23.5 28t-35.5 11h-1q-14 0 -26 -5q-25 -11 -34 -36q-5 -12 -5 -22zM240.5 88q14.5 22 14.5 47q0 17 -8 36q-9 21 -27.5 34.5
t-41.5 16.5q-5 1 -12 1l-10 -1q-14 -2 -23 -6q-24 -10 -38 -32t-14 -48q0 -18 7 -35q10 -25 32 -39t48 -14q16 0 34 8q24 10 38.5 32z" />
    <glyph glyph-name="nine.dnom" horiz-adv-x="339" 
d="M96.5 202q-33.5 20 -53.5 53.5t-20 73.5t20 73.5t53.5 53.5t73.5 20q39 0 72.5 -20t53.5 -53.5t20 -73.5q0 -31 -12 -60l-117 -271h-63l81 189q-18 -5 -35 -5q-40 0 -73.5 20zM107 391.5q-26 -25.5 -26 -62.5t26 -62.5t63 -25.5t62.5 25.5t25.5 62.5t-25.5 62.5
t-62.5 25.5t-63 -25.5z" />
    <glyph glyph-name="zero.numr" horiz-adv-x="353" 
d="M163 674q-35 0 -65 -17.5t-47.5 -47.5t-17.5 -65v-202q0 -35 17.5 -65.5t47.5 -48t65 -17.5h27q35 0 65 17.5t47.5 47.5t17.5 66v202q0 35 -17.5 65t-47.5 47.5t-65 17.5h-27zM243 594q23 -23 23 -56v-194q0 -32 -23 -57q-26 -24 -58 -24h-18q-33 0 -57 24t-24 57v194
q0 35 24 57q25 23 57 23h18q33 0 58 -24z" />
    <glyph glyph-name="one.numr" horiz-adv-x="212" 
d="M182 210h-56v378l-39 -64h-68l89 146h74v-460z" />
    <glyph glyph-name="two.numr" horiz-adv-x="313" 
d="M28 205q-5 40 -5 60q0 26 6 57q10 50 37.5 81.5t71.5 42.5q94 24 94 89q0 36 -26 62t-62 26h-100v57h100q40 0 73.5 -19.5t53 -53t19.5 -72.5q0 -59 -45 -99q-34 -31 -94 -46q-52 -12 -65 -79q-5 -21 -5 -48h185v-58h-238z" />
    <glyph glyph-name="three.numr" horiz-adv-x="289" 
d="M252.5 395.5q13.5 -27.5 13.5 -57.5q0 -36 -18 -66.5t-48.5 -48.5t-66.5 -18h-110v58h110q32 0 54 21.5t22 53.5t-22 54t-54 22h-44v57h44q32 0 54 22.5t22 53.5q0 32 -22 53.5t-54 21.5h-110v58h110q36 0 66.5 -18t48.5 -48.5t18 -66.5q0 -31 -13.5 -58.5t-36.5 -46.5
q23 -19 36.5 -46.5z" />
    <glyph glyph-name="four.numr" horiz-adv-x="353" 
d="M268 385h62v-58h-62v-123h-57v123h-191l149 353h62l-125 -295h105v74h57v-74z" />
    <glyph glyph-name="five.numr" horiz-adv-x="326" 
d="M34 205v58h116q36 0 62 26t26 62t-26 62t-62 26h-120v241h242v-57h-184v-127h62q39 0 72.5 -19.5t53.5 -53t20 -72.5t-20 -72.5t-53.5 -53.5t-72.5 -20h-116z" />
    <glyph glyph-name="six.numr" horiz-adv-x="339" 
d="M242.5 476q33.5 -20 53.5 -53.5t20 -73.5t-20 -73.5t-53.5 -53.5t-73.5 -20q-39 0 -72.5 20t-53.5 53.5t-20 73.5q0 32 12 60l117 271h63l-81 -189q18 5 35 5q40 0 73.5 -20zM232 286.5q26 25.5 26 62.5t-26 62.5t-63 25.5t-62.5 -25.5t-25.5 -62.5t25.5 -62.5
t62.5 -25.5t63 25.5z" />
    <glyph glyph-name="seven.numr" horiz-adv-x="300" 
d="M199 622h-176v58h248l-103 -475h-59z" />
    <glyph glyph-name="eight.numr" horiz-adv-x="335" 
d="M312 346q0 -42 -23.5 -78.5t-63.5 -54.5q-28 -12 -57 -12q-43 0 -79 23.5t-54 63.5q-12 27 -12 57q0 36 16 67.5t46 51.5q-18 16 -30 42q-10 21 -10 48q0 36 19.5 66.5t53.5 46.5q30 10 49 10q37 0 67.5 -20t45.5 -54q10 -23 10 -49q0 -25 -10.5 -48.5t-29.5 -41.5
q34 -22 50 -60q12 -28 12 -58zM102 556q0 -12 7 -28q7 -19 23.5 -28.5t35.5 -9.5q21 0 37.5 10.5t22.5 30.5q5 12 5 22q0 14 -6 27q-7 17 -23.5 28t-35.5 11h-1q-14 0 -26 -5q-25 -11 -34 -36q-5 -12 -5 -22zM240.5 298q14.5 22 14.5 47q0 17 -8 36q-9 21 -27.5 34.5
t-41.5 16.5q-5 1 -12 1l-10 -1q-14 -2 -23 -6q-24 -10 -38 -32t-14 -48q0 -18 7 -35q10 -25 32 -39t48 -14q16 0 34 8q24 10 38.5 32z" />
    <glyph glyph-name="nine.numr" horiz-adv-x="339" 
d="M96.5 412q-33.5 20 -53.5 53.5t-20 73.5t20 73.5t53.5 53.5t73.5 20q39 0 72.5 -20t53.5 -53.5t20 -73.5q0 -31 -12 -60l-117 -271h-63l81 189q-18 -5 -35 -5q-40 0 -73.5 20zM107 601.5q-26 -25.5 -26 -62.5t26 -62.5t63 -25.5t62.5 25.5t25.5 62.5t-25.5 62.5
t-62.5 25.5t-63 -25.5z" />
    </font>
</defs>
</svg>
